<svg class="animated" id="freepik_stories-post" xmlns="http://www.w3.org/2000/svg" viewBox="0 0 500 500" version="1.1" xmlns:xlink="http://www.w3.org/1999/xlink" xmlns:svgjs="http://svgjs.com/svgjs"><style>svg#freepik_stories-post:not(.animated) .animable {opacity: 0;}svg#freepik_stories-post.animated #freepik--Floor--inject-42 {animation: 1.5s Infinite  linear floating;animation-delay: 0s;}svg#freepik_stories-post.animated #freepik--Device--inject-42 {animation: 1s 1 forwards cubic-bezier(.36,-0.01,.5,1.38) slideDown;animation-delay: 0s;}svg#freepik_stories-post.animated #freepik--Post--inject-42 {animation: 1s 1 forwards cubic-bezier(.36,-0.01,.5,1.38) slideLeft;animation-delay: 0s;}svg#freepik_stories-post.animated #freepik--character-2--inject-42 {animation: 1.5s Infinite  linear floating;animation-delay: 0s;}svg#freepik_stories-post.animated #freepik--character-1--inject-42 {animation: 1.5s Infinite  linear floating;animation-delay: 0s;}            @keyframes floating {                0% {                    opacity: 1;                    transform: translateY(0px);                }                50% {                    transform: translateY(-10px);                }                100% {                    opacity: 1;                    transform: translateY(0px);                }            }                    @keyframes slideDown {                0% {                    opacity: 0;                    transform: translateY(-30px);                }                100% {                    opacity: 1;                    transform: translateY(0);                }            }                    @keyframes slideLeft {                0% {                    opacity: 0;                    transform: translateX(-30px);                }                100% {                    opacity: 1;                    transform: translateX(0);                }            }        </style><g id="freepik--Floor--inject-42" class="animable" style="transform-origin: 250.05px 339.12px;"><ellipse id="freepik--floor--inject-42" cx="250.05" cy="339.12" rx="234.09" ry="135.15" style="fill: rgb(245, 245, 245); transform-origin: 250.05px 339.12px;" class="animable"></ellipse></g><g id="freepik--Shadow--inject-42" class="animable" style="transform-origin: 378.53px 388.07px;"><ellipse id="freepik--shadow--inject-42" cx="346.03" cy="407.3" rx="48.75" ry="26.3" style="fill: rgb(230, 230, 230); transform-origin: 346.03px 407.3px;" class="animable"></ellipse><ellipse id="freepik--shadow--inject-42" cx="411.03" cy="368.84" rx="48.75" ry="26.3" style="fill: rgb(230, 230, 230); transform-origin: 411.03px 368.84px;" class="animable"></ellipse></g><g id="freepik--Device--inject-42" class="animable" style="transform-origin: 197.505px 199.415px;"><g id="freepik--device--inject-42" class="animable" style="transform-origin: 197.505px 199.415px;"><path d="M263,324.7l-64,37-.15-.08-24.33-14.05a13.13,13.13,0,0,1-5.9-12.92l9-46.92,64-37-9,46.92a13.13,13.13,0,0,0,5.9,12.92Z" style="fill: rgb(55, 71, 79); transform-origin: 215.743px 306.215px;" id="elftrzmsn1sh4" class="animable"></path><polygon points="177.62 287.71 168.67 334.22 232.68 297.27 240.96 254.25 236.93 253.44 177.62 287.71" style="fill: rgb(38, 50, 56); transform-origin: 204.815px 293.83px;" id="els8vijjmusa" class="animable"></polygon><path d="M199,361.68l-24.48-14.13a13.13,13.13,0,0,1-5.9-12.92l9-46.92-10.68-6.17-10.32,53.68c-1.36,7.1,2.64,15.87,8.9,19.48L199,374Z" style="fill: rgb(38, 50, 56); transform-origin: 177.677px 327.77px;" id="ele4lh79x2r2" class="animable"></path><polygon points="262.99 324.69 198.97 361.68 198.97 374.01 262.99 337.02 262.99 324.69" style="fill: rgb(69, 90, 100); transform-origin: 230.98px 349.35px;" id="eltocyr2p3c0e" class="animable"></polygon><path d="M325.62,20.64c2.95,1.71,5.34,6,5.34,9.66V226.76a12.57,12.57,0,0,1-5.69,9.85L80.39,378c-3.15,1.81-8.09,1.9-11,.2s-5.34-6-5.34-9.66V172.09a12.6,12.6,0,0,1,5.69-9.86L314.59,20.85C317.73,19,322.67,18.94,325.62,20.64Z" style="fill: rgb(69, 90, 100); transform-origin: 197.505px 199.415px;" id="eley6c8n6eonl" class="animable"></path><path d="M79.71,378.34c-3.14,1.47-7.61,1.44-10.36-.14-2.95-1.7-5.34-6-5.34-9.65V172.09a11.67,11.67,0,0,1,1.67-5.61l10.68,6.17a11.61,11.61,0,0,0-1.67,5.6V374.71C74.69,378.08,76.88,379.59,79.71,378.34Z" style="fill: rgb(38, 50, 56); transform-origin: 71.86px 272.947px;" id="elmjxu1zitsl8" class="animable"></path><path d="M331,226.76V30.3c0-3.63-2.55-5.1-5.69-3.29L80.39,168.39a12.57,12.57,0,0,0-5.69,9.86V374.71c0,3.63,2.55,5.1,5.7,3.29L325.27,236.61A12.57,12.57,0,0,0,331,226.76Z" style="fill: rgb(55, 71, 79); transform-origin: 202.85px 202.505px;" id="elja22ry5eo39" class="animable"></path><path d="M318.46,37,84.59,172.13A10.08,10.08,0,0,0,80,180V354.45c0,2.9,2,4.08,4.55,2.63L318.46,222A10,10,0,0,0,323,214.1V39.67C323,36.77,321,35.59,318.46,37Z" style="fill: rgb(186, 104, 200); transform-origin: 201.5px 197.053px;" id="el3a349btrvyg" class="animable"></path><g id="freepik--Window--inject-42" class="animable" style="transform-origin: 201.535px 197.057px;"><path d="M88.77,339.83c0,3,2.11,4.22,4.71,2.72L309.57,217.79a10.42,10.42,0,0,0,4.71-8.16V64.16L88.77,194.36Z" style="fill: rgb(250, 250, 250); transform-origin: 201.525px 203.676px;" id="elchtdnwnw3ia" class="animable"></path><path d="M313.28,65.89V209.63a9.48,9.48,0,0,1-4.21,7.3L93,341.68a3.27,3.27,0,0,1-1.61.51c-1.45,0-1.6-1.65-1.6-2.36V194.94l223.51-129m1-1.73L88.77,194.36V339.83c0,2.13,1.06,3.36,2.6,3.36a4.24,4.24,0,0,0,2.11-.64L309.57,217.79a10.42,10.42,0,0,0,4.71-8.16V64.16Z" style="fill: rgb(224, 224, 224); transform-origin: 201.535px 203.675px;" id="el8sbs2n9fbgm" class="animable"></path><path d="M99.5,198.18l44.41-25.64c1.19-.69,2.16-.13,2.16,1.25V300.12a4.8,4.8,0,0,1-2.16,3.75L99.5,329.51c-1.2.69-2.17.13-2.17-1.25V201.93A4.78,4.78,0,0,1,99.5,198.18Z" style="fill: rgb(240, 240, 240); transform-origin: 121.7px 251.025px;" id="elguhlc2ljvsh" class="animable"></path><path d="M107.62,202.87l28.17-16.26c1.19-.69,2.16-.2,2.16,1.1a4.65,4.65,0,0,1-2.16,3.59l-28.17,16.26c-1.2.69-2.17.2-2.17-1.09A4.64,4.64,0,0,1,107.62,202.87Z" style="fill: rgb(250, 250, 250); transform-origin: 121.7px 197.085px;" id="elgt0c7hmdc57" class="animable"></path><path d="M105.45,215v1.69c0,.83.59,1.17,1.3.75l1.47-.84a2.87,2.87,0,0,0,1.3-2.25v-1.69c0-.83-.59-1.17-1.3-.75l-1.47.84A2.91,2.91,0,0,0,105.45,215Z" style="fill: rgb(186, 104, 200); transform-origin: 107.485px 214.675px;" id="eleey3n1resw7" class="animable"></path><path d="M113.58,211.16c0,1.29,1,1.78,2.16,1.09l20-11.57a4.65,4.65,0,0,0,2.16-3.59c0-1.3-1-1.79-2.16-1.1l-20,11.57A4.65,4.65,0,0,0,113.58,211.16Z" style="fill: rgb(250, 250, 250); transform-origin: 125.74px 204.12px;" id="elamowgmwrqgd" class="animable"></path><path d="M105.45,224.39v1.69c0,.83.59,1.17,1.3.75l1.47-.84a2.86,2.86,0,0,0,1.3-2.25v-1.69c0-.83-.59-1.17-1.3-.75l-1.47.84A2.91,2.91,0,0,0,105.45,224.39Z" style="fill: rgb(186, 104, 200); transform-origin: 107.485px 224.065px;" id="elz02ouqzw48o" class="animable"></path><path d="M113.58,220.55c0,1.29,1,1.78,2.16,1.09l20-11.57a4.65,4.65,0,0,0,2.16-3.59c0-1.3-1-1.79-2.16-1.1l-20,11.57A4.65,4.65,0,0,0,113.58,220.55Z" style="fill: rgb(250, 250, 250); transform-origin: 125.74px 213.51px;" id="eldaqi61zfobh" class="animable"></path><path d="M105.45,233.77v1.69c0,.83.59,1.16,1.3.75l1.47-.85a2.86,2.86,0,0,0,1.3-2.25v-1.69c0-.83-.59-1.16-1.3-.75l-1.47.85A2.88,2.88,0,0,0,105.45,233.77Z" style="fill: rgb(186, 104, 200); transform-origin: 107.485px 233.44px;" id="elhc7ztdi1uqi" class="animable"></path><path d="M113.58,229.92c0,1.3,1,1.79,2.16,1.1l20-11.57a4.65,4.65,0,0,0,2.16-3.6c0-1.29-1-1.78-2.16-1.09l-20,11.57A4.65,4.65,0,0,0,113.58,229.92Z" style="fill: rgb(250, 250, 250); transform-origin: 125.74px 222.89px;" id="elox9ufqi935" class="animable"></path><path d="M105.45,243.14v1.69c0,.83.59,1.16,1.3.75l1.47-.85a2.86,2.86,0,0,0,1.3-2.25v-1.69c0-.83-.59-1.16-1.3-.75l-1.47.85A2.88,2.88,0,0,0,105.45,243.14Z" style="fill: rgb(186, 104, 200); transform-origin: 107.485px 242.81px;" id="elvq48lzl9wt" class="animable"></path><path d="M113.58,239.29c0,1.3,1,1.79,2.16,1.1l20-11.57a4.65,4.65,0,0,0,2.16-3.6c0-1.29-1-1.78-2.16-1.09l-20,11.57A4.65,4.65,0,0,0,113.58,239.29Z" style="fill: rgb(250, 250, 250); transform-origin: 125.74px 232.26px;" id="elbfpumdhvqvk" class="animable"></path><path d="M107.45,254.56l28.16-16.26c1.2-.69,2.17-.2,2.17,1.09a4.64,4.64,0,0,1-2.17,3.6l-28.16,16.26c-1.2.69-2.17.2-2.17-1.09A4.64,4.64,0,0,1,107.45,254.56Z" style="fill: rgb(250, 250, 250); transform-origin: 121.53px 248.775px;" id="elkz9bev2081" class="animable"></path><path d="M105.28,266.69v1.69c0,.83.58,1.17,1.3.75l1.47-.84a2.86,2.86,0,0,0,1.29-2.25v-1.69c0-.83-.58-1.17-1.29-.75l-1.47.84A2.87,2.87,0,0,0,105.28,266.69Z" style="fill: rgb(186, 104, 200); transform-origin: 107.31px 266.365px;" id="elck8x6peusas" class="animable"></path><path d="M113.41,262.85c0,1.29,1,1.78,2.16,1.09l20-11.57a4.64,4.64,0,0,0,2.17-3.59c0-1.3-1-1.79-2.17-1.1l-20,11.57A4.65,4.65,0,0,0,113.41,262.85Z" style="fill: rgb(250, 250, 250); transform-origin: 125.575px 255.81px;" id="elp1ozqb53nbn" class="animable"></path><path d="M105.28,276.08v1.69c0,.83.58,1.17,1.3.75l1.47-.84a2.86,2.86,0,0,0,1.29-2.25v-1.69c0-.83-.58-1.17-1.29-.75l-1.47.84A2.87,2.87,0,0,0,105.28,276.08Z" style="fill: rgb(186, 104, 200); transform-origin: 107.31px 275.755px;" id="elzvsvoh6205n" class="animable"></path><path d="M113.41,272.24c0,1.29,1,1.78,2.16,1.09l20-11.57a4.64,4.64,0,0,0,2.17-3.59c0-1.3-1-1.79-2.17-1.1l-20,11.57A4.65,4.65,0,0,0,113.41,272.24Z" style="fill: rgb(250, 250, 250); transform-origin: 125.575px 265.2px;" id="el88vafoeva5x" class="animable"></path><path d="M105.28,285.46v1.69c0,.83.58,1.16,1.3.75l1.47-.85a2.85,2.85,0,0,0,1.29-2.25v-1.69c0-.83-.58-1.16-1.29-.75l-1.47.85A2.86,2.86,0,0,0,105.28,285.46Z" style="fill: rgb(186, 104, 200); transform-origin: 107.31px 285.13px;" id="eln5zic5eai9" class="animable"></path><path d="M113.41,281.61c0,1.3,1,1.79,2.16,1.1l20-11.57a4.64,4.64,0,0,0,2.17-3.6c0-1.29-1-1.78-2.17-1.09l-20,11.57A4.65,4.65,0,0,0,113.41,281.61Z" style="fill: rgb(250, 250, 250); transform-origin: 125.575px 274.58px;" id="el81do4i8klnf" class="animable"></path><path d="M105.28,294.83v1.69c0,.83.58,1.16,1.3.75l1.47-.85a2.85,2.85,0,0,0,1.29-2.25v-1.69c0-.83-.58-1.16-1.29-.75l-1.47.85A2.86,2.86,0,0,0,105.28,294.83Z" style="fill: rgb(186, 104, 200); transform-origin: 107.31px 294.5px;" id="eldedy2ksgaam" class="animable"></path><path d="M113.41,291c0,1.3,1,1.79,2.16,1.1l20-11.57a4.64,4.64,0,0,0,2.17-3.6c0-1.29-1-1.78-2.17-1.09l-20,11.57A4.65,4.65,0,0,0,113.41,291Z" style="fill: rgb(250, 250, 250); transform-origin: 125.575px 283.97px;" id="elb6zjw2ydclw" class="animable"></path><path d="M88.77,184.49a10.44,10.44,0,0,1,4.71-8.17L309.57,51.57c2.6-1.51,4.71-.29,4.71,2.72v9.87L88.77,194.36Z" style="fill: rgb(55, 71, 79); transform-origin: 201.525px 122.641px;" id="el845soxdbi5" class="animable"></path><path d="M287.75,69.25a4.9,4.9,0,0,0-2.21,3.83c0,1.41,1,2,2.21,1.28A4.88,4.88,0,0,0,290,70.53C290,69.12,289,68.55,287.75,69.25Z" style="fill: rgb(186, 104, 200); transform-origin: 287.77px 71.8094px;" id="elai729mmuhp7" class="animable"></path><path d="M295.49,64.8a4.88,4.88,0,0,0-2.21,3.83c0,1.41,1,2,2.21,1.27a4.87,4.87,0,0,0,2.21-3.83C297.7,64.66,296.71,64.09,295.49,64.8Z" style="fill: rgb(186, 104, 200); transform-origin: 295.49px 67.3544px;" id="elpxljtr7jiqr" class="animable"></path><path d="M303.23,60.34A4.88,4.88,0,0,0,301,64.17c0,1.41,1,2,2.22,1.28a4.9,4.9,0,0,0,2.21-3.83C305.44,60.21,304.45,59.64,303.23,60.34Z" style="fill: rgb(186, 104, 200); transform-origin: 303.215px 62.8994px;" id="el66o4upvwxwh" class="animable"></path></g></g></g><g id="freepik--Post--inject-42" class="animable animator-active" style="transform-origin: 229.045px 188.985px;"><g id="freepik--post-it--inject-42" class="animable" style="transform-origin: 229.045px 188.985px;"><polygon points="172.18 160.84 289.98 92.83 289.98 111.59 172.18 179.6 172.18 160.84" style="fill: rgb(186, 104, 200); transform-origin: 231.08px 136.215px;" id="elpeq1wp3ljvj" class="animable"></polygon><g id="el49ubkr7x6ke"><polygon points="172.18 160.84 289.98 92.83 289.98 111.59 172.18 179.6 172.18 160.84" style="opacity: 0.05; transform-origin: 231.08px 136.215px;" class="animable"></polygon></g><polygon points="168.11 158.5 172.18 160.84 172.18 179.6 168.11 177.26 168.11 158.5" style="fill: rgb(186, 104, 200); transform-origin: 170.145px 169.05px;" id="elv7o0zmoy94o" class="animable"></polygon><g id="el45ovdplu9tv"><polygon points="168.11 158.5 172.18 160.84 172.18 179.6 168.11 177.26 168.11 158.5" style="opacity: 0.2; transform-origin: 170.145px 169.05px;" class="animable"></polygon></g><polygon points="289.98 92.83 285.92 90.49 168.11 158.5 172.18 160.84 289.98 92.83" style="fill: rgb(186, 104, 200); transform-origin: 229.045px 125.665px;" id="elz6a87itj34r" class="animable"></polygon><g id="el4y81v930iz7"><polygon points="289.98 92.83 285.92 90.49 168.11 158.5 172.18 160.84 289.98 92.83" style="fill: rgb(255, 255, 255); opacity: 0.4; transform-origin: 229.045px 125.665px;" class="animable"></polygon></g><polygon points="172.18 179.6 289.98 111.59 289.98 219.47 172.18 287.48 172.18 179.6" style="fill: rgb(186, 104, 200); transform-origin: 231.08px 199.535px;" id="elldms8to04xl" class="animable"></polygon><polygon points="168.11 177.26 172.18 179.6 172.18 287.48 168.12 285.14 168.11 177.26" style="fill: rgb(186, 104, 200); transform-origin: 170.145px 232.37px;" id="elsckv3l78ysp" class="animable"></polygon><g id="eliuoptnqt9c8"><polygon points="168.11 177.26 172.18 179.6 172.18 287.48 168.12 285.14 168.11 177.26" style="opacity: 0.15; transform-origin: 170.145px 232.37px;" class="animable"></polygon></g></g><path d="M239.09,141.15l-.13.12a1.14,1.14,0,0,1-.34.26c-.25.16-.38,0-.61-.15l-1.88-1.1c-.77-.45-1.68-1-2.63-1.57s-2-1.2-3-1.84c-.3-.2.25-1.2.59-1,1.07.56,2.11,1.14,3.1,1.68s1.89,1,2.68,1.5l1.88,1.07c.22.15.45.16.44.46a1.18,1.18,0,0,1-.05.41Z" style="fill: rgb(224, 224, 224); transform-origin: 234.803px 138.72px;" id="elqt4l54t2z8h" class="animable"></path><path d="M241,142.5c-1.45,2.51-3.81,3.87-6.3,2.52l-.14-.07-.06,0a2.69,2.69,0,0,1-1.05-2.41,8.38,8.38,0,0,1,3.77-6.55,2.79,2.79,0,0,1,2.53-.33l.14.07.23.15C242.47,137.34,242.45,140,241,142.5Z" style="fill: rgb(55, 71, 79); transform-origin: 237.72px 140.523px;" id="eli8iezi1h35" class="animable"></path><path d="M244.06,147.47l2.8-4.78a27.31,27.31,0,0,1-5.9-4.08l-.11-.11-.09-.09h0a1.63,1.63,0,0,0-1.86.07,5.44,5.44,0,0,0-2.46,4.26,1.74,1.74,0,0,0,.72,1.59h0a1.23,1.23,0,0,0,.47.14A25.38,25.38,0,0,1,244.06,147.47Z" style="fill: rgb(69, 90, 100); transform-origin: 241.646px 142.811px;" id="elkiwi0ff76mf" class="animable"></path><path d="M249.27,143.6a3,3,0,0,0-3-2.95,3.06,3.06,0,0,0-1,.2l-.06,0-.11,0a3.31,3.31,0,0,0-.47.22,6.6,6.6,0,0,0-3,5.17,3.42,3.42,0,0,0,.09.75,2.95,2.95,0,0,0,5.85-.51,2.4,2.4,0,0,0,0-.28A3,3,0,0,0,249.27,143.6Z" style="fill: rgb(55, 71, 79); transform-origin: 245.45px 145.025px;" id="elhc4olbn9dhw" class="animable"></path><path d="M246.32,142.1c1.65-.95,3-.18,3,1.73a6.59,6.59,0,0,1-3,5.17c-1.65.95-3,.18-3-1.72A6.62,6.62,0,0,1,246.32,142.1Z" style="fill: rgb(69, 90, 100); transform-origin: 246.32px 145.55px;" id="eljlqrvr7r7z" class="animable"></path><path d="M182.7,181c2.25-1.3,4.07-.25,4.07,2.35a9,9,0,0,1-4.07,7c-2.24,1.3-4.06.25-4.06-2.34A9,9,0,0,1,182.7,181Z" style="fill: rgb(250, 250, 250); transform-origin: 182.705px 185.675px;" id="el6heu5prz4hp" class="animable"></path><path d="M191.55,176l19.75-11.39c1-.57,1.77-.17,1.77.89a3.82,3.82,0,0,1-1.77,3l-19.75,11.4c-1,.56-1.77.16-1.77-.9A3.82,3.82,0,0,1,191.55,176Z" style="fill: rgb(69, 90, 100); transform-origin: 201.425px 172.252px;" id="elblttcf6x4lm" class="animable"></path><path d="M191.08,182.74l17.71-10.23c.72-.41,1.3-.29,1.3.27a2.56,2.56,0,0,1-1.29,1.77l-17.73,10.52c-.71.42-1.29.24-1.29-.41A2.6,2.6,0,0,1,191.08,182.74Z" style="fill: rgb(69, 90, 100); transform-origin: 199.935px 178.782px;" id="elekl70zizw37" class="animable"></path><g id="el944g4awht7b"><path d="M180.3,197.86c0,1,.78,1.4,1.73.85l98.09-56.63a3.68,3.68,0,0,0,1.73-2.85c0-1-.77-1.39-1.73-.84L182,195A3.7,3.7,0,0,0,180.3,197.86Z" style="opacity: 0.3; transform-origin: 231.075px 168.549px;" class="animable"></path></g><g id="elce5j96okipf"><path d="M180.3,204.9c0,1,.78,1.4,1.73.84l58.75-33.92a3.69,3.69,0,0,0,1.73-2.84c0-1-.78-1.4-1.73-.85L182,202.06A3.69,3.69,0,0,0,180.3,204.9Z" style="opacity: 0.3; transform-origin: 211.405px 186.938px;" class="animable"></path></g><polygon points="180.3 212.45 281.85 153.82 281.85 214.79 180.3 273.42 180.3 212.45" style="fill: rgb(186, 104, 200); transform-origin: 231.075px 213.62px;" id="eln0mnz7949u" class="animable"></polygon><g id="elkznsggvy13"><polygon points="180.3 212.45 281.85 153.82 281.85 214.79 180.3 273.42 180.3 212.45" style="fill: rgb(255, 255, 255); opacity: 0.7; transform-origin: 231.075px 213.62px;" class="animable"></polygon></g><polygon points="180.3 273.42 180.3 254.66 216.86 205.41 249.27 219.53 238.61 212.45 253.42 193.69 281.85 204.37 281.85 214.79 180.3 273.42" style="fill: rgb(250, 250, 250); transform-origin: 231.075px 233.555px;" id="el2j0u2xxbjna" class="animable"></polygon><path d="M267.28,174c3.17-1.83,5.74-.35,5.74,3.31a12.68,12.68,0,0,1-5.74,9.94c-3.17,1.83-5.74.35-5.74-3.31A12.68,12.68,0,0,1,267.28,174Z" style="fill: rgb(250, 250, 250); transform-origin: 267.28px 180.625px;" id="elbhkx3y5xx87" class="animable"></path></g><g id="freepik--character-2--inject-42" class="animable" style="transform-origin: 414.553px 272.23px;"><g id="freepik--Character--inject-42" class="animable" style="transform-origin: 414.553px 272.23px;"><path d="M427.29,195c4.36-1,9.09,2.18,11.8,9s8.08,24.33,9.18,28.9c.5,2.05-15.23,19.92-14.67,19.66.17-.08-4.94-8.88-4.94-8.88l7.67-11.48-4.55-12.63Z" style="fill: rgb(255, 183, 167); transform-origin: 437.786px 223.691px;" id="el4n13tujby95" class="animable"></path><path d="M435.21,356.81c.58.23.72,1.36.78,3.59,0,1.69.37,4.64-1.62,5.2s-4.87.22-6.12-1.38c-1.55-2-2.6-3.77-4.82-6.22-1.93-2.13-4-4.12-4.78-7.07-.68-2.68-.07-3.82,1.76-4.57,2.51-1,6.39,2.49,8.34,3.07C430.43,349.92,434.62,356.58,435.21,356.81Z" style="fill: rgb(38, 50, 56); transform-origin: 427.199px 356.016px;" id="elgnhlhu178zr" class="animable"></path><path d="M427.46,349.48a3.53,3.53,0,0,0-2.78,0c-1.88.55-2.45,1.9-1,3.42s4.9,4.85,4.9,4.85l1.65-4.22Z" style="fill: rgb(255, 183, 167); transform-origin: 426.546px 353.472px;" id="elnqpyyw3u2p" class="animable"></path><path d="M414.65,371.1s.75,2.39,1.15,4.48c.31,1.66.76,4.43.16,5.67s-2.87,2-6.37,1.94c-2.27-.05-5.83,1.45-8.27,2.77s-5.23,1.33-7.88,1c-3.11-.4-6.32-2.25-6.81-3.55s.17-1.91,7.56-4.95c.07,0,7.8-3.4,11.41-7.28Z" style="fill: rgb(38, 50, 56); transform-origin: 401.381px 379.12px;" id="elu30o35vdw8" class="animable"></path><path d="M394.19,378.44c-1,.42-1.9.79-2.68,1.13-.2.7.07,1.8,3.33,2.35,5,.83,17.9-8.19,17.9-8.19s-.39-1.41-.79-2.61l-6.35,0C402,375,394.26,378.41,394.19,378.44Z" style="fill: rgb(255, 183, 167); transform-origin: 402.1px 376.547px;" id="elekg5meqhgu8" class="animable"></path><path d="M438.42,316.83a65,65,0,0,0-3.16-14.13S437,290.61,438,279c1.88-20.83.68-27.67-3.3-37.07,0,0-34.95-4-36.21,10.52-1.57,18.1-.25,53.12.14,59.53s1,9.29,3.05,22.69c1.59,10.2,4.08,37.87,4.08,37.87,1.12,2.76,8.1,2.35,8.87-.81,0,0,3.28-32.66,3.08-40a63.23,63.23,0,0,0-2.59-16.16s2.55-29.48,3.24-34.17c0,0,1,9.37,1.37,15.78s2.22,12.54,3.92,24.45c1.47,10.33,4.89,36.15,4.89,36.15,3.29,3.39,6.4,1.36,6.65-.23C435.2,357.49,439.56,325.79,438.42,316.83Z" style="fill: rgb(255, 183, 167); transform-origin: 418.305px 307.902px;" id="elqif0id7s2e" class="animable"></path><polygon points="409.72 192.18 411.19 205.72 423.09 204.81 421.93 189.78 409.72 192.18" style="fill: rgb(255, 183, 167); transform-origin: 416.405px 197.75px;" id="eltvzs817f2h" class="animable"></polygon><path d="M435.86,201.87c-1.26-3.58-5.66-7.6-10.24-6.81-1.19.21-2.12.34-3.24.56-.15,3.11-6.16,4.67-12,2.7-1.76.49-3.4.94-4.85,1.48-2.12.79-8.45,11.84-9.13,18.91-.56,5.75,3.93,9.71,3.93,9.71C398.4,240.74,396.6,290,396.6,290a11.75,11.75,0,0,0,6,1.13l1.76-10.41.62,10.76c3.3.58,12.57-.16,18.46-2a46.33,46.33,0,0,0,17.34-10.16s.12-16.85-1.32-25.1-1.86-10.21-9.13-21.76C436.87,215.77,437.73,207.17,435.86,201.87Z" style="fill: rgb(186, 104, 200); transform-origin: 418.567px 243.317px;" id="el6406fuj39vc" class="animable"></path><g id="elacylws6w4ke"><g style="opacity: 0.6; transform-origin: 418.567px 243.317px;" class="animable"><path d="M435.86,201.87c-1.26-3.58-5.66-7.6-10.24-6.81-1.19.21-2.12.34-3.24.56-.15,3.11-6.16,4.67-12,2.7-1.76.49-3.4.94-4.85,1.48-2.12.79-8.45,11.84-9.13,18.91-.56,5.75,3.93,9.71,3.93,9.71C398.4,240.74,396.6,290,396.6,290a11.75,11.75,0,0,0,6,1.13l1.76-10.41.62,10.76c3.3.58,12.57-.16,18.46-2a46.33,46.33,0,0,0,17.34-10.16s.12-16.85-1.32-25.1-1.86-10.21-9.13-21.76C436.87,215.77,437.73,207.17,435.86,201.87Z" id="elfqnxbirx3vr" class="animable" style="transform-origin: 418.567px 243.317px;"></path></g></g><path d="M407.94,244.7c6-30.71,5.54-41-2.66-44.8-6.39,1.81-6.45,9.88-6.09,17.58,0,0,.38,16-2,27.32-1.29,6.13-3.26,15-5.62,19.67a3.81,3.81,0,0,1-2,1.81c-2.32.92-3,2.26-4.84,3.62-1.47,1.06-2.57,1.19-2.48,1.63a2.06,2.06,0,0,0,2.42,1.39,10.57,10.57,0,0,0,2.78-.91,21.14,21.14,0,0,1-3.95,4.35c-3.58,3.06-4.11,5.24,1.79,6.37,3.69.71,7.06-1,11.34-8.68a68.42,68.42,0,0,0,4.27-8.69C403.77,257.55,406.68,251.11,407.94,244.7Z" style="fill: rgb(255, 183, 167); transform-origin: 396.412px 241.388px;" id="el1ruqdbsjje3" class="animable"></path><path d="M403.25,175.42s-4.57-5.3-1.12-10.57c4.08-6.22,11.78-7.19,20.87-4.62,4.5,1.27,9.34,6.22,9.79,14.89.35,6.7-16.94,11.32-16.57,15.91Z" style="fill: rgb(38, 50, 56); transform-origin: 416.818px 174.967px;" id="elbzvvjhwo3jl" class="animable"></path><path d="M400.67,177.42s-2.58,4-2.23,4.44a6.28,6.28,0,0,0,2,.85Z" style="fill: rgb(242, 143, 143); transform-origin: 399.539px 180.065px;" id="elz7lsf7kq7u" class="animable"></path><path d="M408.56,164.67c-2.55,1.36-6.95,3.87-7.95,13.34-1,9.71,1.17,13.05,2.51,14.3.9.85,5.51,1.1,7.9.32,3-1,9.46-4.29,12.44-9.34,3.51-5.93,4.14-13.79,0-16.81C417.52,162.23,410.71,163.52,408.56,164.67Z" style="fill: rgb(255, 183, 167); transform-origin: 413.344px 178.322px;" id="eluiggqmxuep" class="animable"></path><path d="M407.81,165.09s-2.12,8.88.64,14.43c0,0,1.52-3.47,4.5-2.53s2.79,4.95.46,7a4.46,4.46,0,0,1-4.62,1,20,20,0,0,0,4.36,6.78s8.82,4.06,16.6-4.5c6.09-6.7,3.13-22.39-4.67-24.86C414.46,159.1,407.81,165.09,407.81,165.09Z" style="fill: rgb(38, 50, 56); transform-origin: 420.019px 177.072px;" id="elec0kxixtagu" class="animable"></path><path d="M437.27,190.7a7.4,7.4,0,1,1,5-9.19A7.4,7.4,0,0,1,437.27,190.7Z" style="fill: rgb(38, 50, 56); transform-origin: 435.172px 183.604px;" id="el05xx16lpizsm" class="animable"></path><path d="M437.29,180.82a4.49,4.49,0,1,1,3-5.58A4.48,4.48,0,0,1,437.29,180.82Z" style="fill: rgb(38, 50, 56); transform-origin: 435.988px 176.523px;" id="el6snkonrwvjo" class="animable"></path><path d="M431.6,193.2a4.49,4.49,0,1,1,3-5.58A4.49,4.49,0,0,1,431.6,193.2Z" style="fill: rgb(38, 50, 56); transform-origin: 430.297px 188.903px;" id="ele6j5xct4s27" class="animable"></path><path d="M400.94,161.21c-3.88,4.06-3.94,15.63,7.51,18.31l10.63-20.19C412,155.58,404.41,157.58,400.94,161.21Z" style="fill: rgb(38, 50, 56); transform-origin: 408.836px 168.42px;" id="el2eq27yret4o" class="animable"></path><path d="M407.34,182.71a2.26,2.26,0,0,1,1.48-4.27Z" style="fill: rgb(38, 50, 56); transform-origin: 407.34px 180.519px;" id="elnsgkons617k" class="animable"></path></g></g><g id="freepik--character-1--inject-42" class="animable" style="transform-origin: 325.901px 310.087px;"><g id="freepik--character--inject-42" class="animable" style="transform-origin: 325.901px 310.087px;"><path d="M374.76,278.82c1.43-28.8-.73-35.75-8.28-41.21l-3.35,16.63s3.05,19.76,2.53,26.3c-.46,5.75-1.18,12.94-2.65,17.56a3.51,3.51,0,0,1-1.57,1.94c-2,1.18-2.8,2.42-4.3,3.93-1.18,1.18-2.17,1.45-2,1.84a1.89,1.89,0,0,0,2.4.92,13.49,13.49,0,0,0,2.81-1.45,17.49,17.49,0,0,1-2.95,4.82c-2.81,3.3-3,5.36,2.55,5.53,3.46.11,6.28-2,9.06-9.55a63.07,63.07,0,0,0,2.63-8.52C373.11,290,374.53,283.45,374.76,278.82Z" style="fill: rgb(255, 168, 167); transform-origin: 365.147px 276.622px;" id="el9ok6p5fiv89" class="animable"></path><path d="M360.07,235.28a11.05,11.05,0,0,1,11.72,6.25c3.09,5.83,3.65,15.74,3.8,25.58,0,0-6.51,5.2-14.11,2.4Z" style="fill: rgb(186, 104, 200); transform-origin: 367.83px 252.743px;" id="elobt78yhv9oe" class="animable"></path><path d="M367.28,394c.57.24.7,1.35.73,3.55,0,1.67.32,4.59-1.64,5.12s-4.82.18-6-1.42c-1.52-2-2.54-3.74-4.71-6.19-1.89-2.12-3.93-4.1-4.65-7-.64-2.64,0-3.77,1.78-4.49,2.49-1,6.29,2.52,8.21,3.11C362.62,387.15,366.7,393.77,367.28,394Z" style="fill: rgb(38, 50, 56); transform-origin: 359.399px 393.146px;" id="elouha5m9mm4f" class="animable"></path><path d="M367.32,392l-.06,2.71a6.6,6.6,0,0,1-6.83,0c-.12-.26-.63-3.88-.63-3.88Z" style="fill: rgb(255, 168, 167); transform-origin: 363.56px 393.246px;" id="eln8wpoecysjn" class="animable"></path><path d="M345,409.09s.72,2.37,1.1,4.44c.29,1.64.71,4.38.11,5.6s-2.86,2-6.32,1.85c-2.24-.06-5.77,1.38-8.19,2.66s-7.65,1.76-10.26,1.39c-3.07-.43-6.22-2.29-6.69-3.57s.22-2.6,7.55-5.53c.07,0,10.16-3.06,13.76-6.86Z" style="fill: rgb(38, 50, 56); transform-origin: 330.575px 417.111px;" id="el25mcvqptr03" class="animable"></path><path d="M345.1,406.17s-.06,2-.07,3.15-1.41,2.83-4.92,2.62c-2.46-.14-4.16-.84-4-2.87l.07-2.92Z" style="fill: rgb(255, 168, 167); transform-origin: 340.6px 409.054px;" id="elqv2ean6qr7" class="animable"></path><path d="M369.89,356.12A73.33,73.33,0,0,0,367,342s1.24-12.13,2-23.63c.78-12.44.6-28.09.91-31.19,0,0-40-9-41,5.34s.44,51,.77,57.36,1.3,11.94,2.38,22.22,4.13,34.08,4.13,34.08a9.5,9.5,0,0,0,8.94,0s3.47-28.7,3.34-36a62.18,62.18,0,0,0-2.41-16s1-11.84,1.93-22.14,1.73-15.24,2-19.72l.87-.41s.48,17.81.82,24.14,1.2,12.41,2.76,24.19c1.36,10.22,5.59,31.86,5.59,31.86,4.53,2.59,7.33-.16,7.33-.16S370.93,365,369.89,356.12Z" style="fill: rgb(55, 71, 79); transform-origin: 349.321px 345.845px;" id="elnumlij9olrn" class="animable"></path><path d="M350,312.34s9.85-4.58,14.82-8.8c0,0-4.67,6.27-10.68,9,0,0-2.61,22.06-2.59,21.62l-.73-21.81Z" style="fill: rgb(38, 50, 56); transform-origin: 357.41px 318.853px;" id="elks38ep65x6" class="animable"></path><polygon points="343.12 230.34 345.2 243.47 357.04 242.87 355.65 227.52 343.12 230.34" style="fill: rgb(255, 168, 167); transform-origin: 350.08px 235.495px;" id="elo9jfe8mxv8l" class="animable"></polygon><path d="M369.53,242.2c-1.09-3.58-5.51-7.55-10-6.82l-3.07.52c-.55,2.22-6.21,3.93-12,2.56q-2.62.69-4.8,1.41c-4.17,1.39-8,4.87-8.66,18.46,0,0-2.1,31.65-2.26,37.78,10.28,4.34,21.08,4.46,27.07,3.29,12.48-2.44,14.09-7.55,14.09-7.55s.68-22.78.53-32.63C370.25,250.85,370.28,244.66,369.53,242.2Z" style="fill: rgb(230, 230, 230); transform-origin: 349.596px 267.662px;" id="eltp0pefo1sgo" class="animable"></path><path d="M334.37,214.23s-3.1,4.71-2.75,5.17,2.64.88,2.64.88Z" style="fill: rgb(242, 143, 143); transform-origin: 332.981px 217.255px;" id="el14itxdou3ql" class="animable"></path><path d="M343,201.21c-6.27,1.32-8.09,4.08-8.68,14.06-.62,10.42.45,13.69,1.82,15.1.92.94,6.06,1.11,8.65.4,3.24-.89,10.57-3.49,14-8.73,4-6.17,5.1-14.53.78-18C353.46,199.26,345.54,200.67,343,201.21Z" style="fill: rgb(255, 168, 167); transform-origin: 348.24px 215.9px;" id="elwiw9s2jo0e" class="animable"></path><path d="M333.61,204.47l.19.18c1.2,1.15,2.75,1.87,4,3a9.32,9.32,0,0,1,2.86,4.54c.41,1.44.58,3.16,2.14,3.83,0,0,1-3.86,4.24-3.37s3.71,4.65,1.65,7.18-4,1.56-4,1.56.11,5.51,2.54,8.63c0,0,2.78.9,7.89-.19,3.14-.67,7.57-4.6,9.44-8.75,4-8.79,4.22-16.7-1.39-19.06-.6-4-3.79-5.87-7.43-6.71-5.43-1.24-10.52,2-15.89.78-1.13-.25-2.22-.66-3.37-.8a.74.74,0,0,0-.39,0c-.27.14-.25.53-.17.83a6.87,6.87,0,0,0,1.58,2.9,16.64,16.64,0,0,1-6.1-.77A7.89,7.89,0,0,0,333.61,204.47Z" style="fill: rgb(38, 50, 56); transform-origin: 349.425px 212.696px;" id="elv77r2pjuqao" class="animable"></path><path d="M363.3,203.33l3.76-2.21a2.18,2.18,0,1,0-3.76,2.21Z" style="fill: rgb(38, 50, 56); transform-origin: 365.03px 201.687px;" id="el7940oj0k9iv" class="animable"></path><path d="M342.75,218.17l.11-4.36a2.18,2.18,0,0,0-.11,4.36Z" style="fill: rgb(38, 50, 56); transform-origin: 341.742px 215.99px;" id="el10b2njudlpqf" class="animable"></path><path d="M289.13,262.29c1.93.9,24.43,18.33,28,16.44s22.4-22.86,22.4-22.86a14.78,14.78,0,0,0,.36-16s-5.89.95-9.07,5.52-16.81,20.91-16.81,20.91q-4.86-2.56-9.68-5.2c-2.65-1.45-5.31-2.9-7.9-4.45a9.83,9.83,0,0,1-2-1.32c-1.27-1.31-1-4.4-.92-6.08a23.19,23.19,0,0,1,.17-2.36c.13-1,.37-3.31-1.38-2.6a2.2,2.2,0,0,0-.84.68,3.89,3.89,0,0,0-.65,1.16c-.35,1-.27,2.13-.59,3.15a.83.83,0,0,1-.22.4.73.73,0,0,1-.55.16c-2.52-.13-4.83-3.72-5.94-5.62a5.19,5.19,0,0,0-1.87-2.23c-1.36-.67-3,.21-4,1.43a8,8,0,0,0-1.37,5.53,11,11,0,0,0,3.13,7A34.12,34.12,0,0,0,289.13,262.29Z" style="fill: rgb(255, 168, 167); transform-origin: 309.139px 259.372px;" id="elctxdp69zrvt" class="animable"></path><path d="M341.81,239.18c-2.53.23-6.73.33-10.94,4.89-4.92,5.33-11.45,14.07-11.45,14.07a14,14,0,0,0,10.83,10.67s8.86-8.68,11.38-13.51S344.71,242.54,341.81,239.18Z" style="fill: rgb(186, 104, 200); transform-origin: 331.591px 253.995px;" id="el14pi64w43pmi" class="animable"></path></g></g><defs>     <filter id="active" height="200%">         <feMorphology in="SourceAlpha" result="DILATED" operator="dilate" radius="2"></feMorphology>                <feFlood flood-color="#32DFEC" flood-opacity="1" result="PINK"></feFlood>        <feComposite in="PINK" in2="DILATED" operator="in" result="OUTLINE"></feComposite>        <feMerge>            <feMergeNode in="OUTLINE"></feMergeNode>            <feMergeNode in="SourceGraphic"></feMergeNode>        </feMerge>    </filter>    <filter id="hover" height="200%">        <feMorphology in="SourceAlpha" result="DILATED" operator="dilate" radius="2"></feMorphology>                <feFlood flood-color="#ff0000" flood-opacity="0.5" result="PINK"></feFlood>        <feComposite in="PINK" in2="DILATED" operator="in" result="OUTLINE"></feComposite>        <feMerge>            <feMergeNode in="OUTLINE"></feMergeNode>            <feMergeNode in="SourceGraphic"></feMergeNode>        </feMerge>            <feColorMatrix type="matrix" values="0   0   0   0   0                0   1   0   0   0                0   0   0   0   0                0   0   0   1   0 "></feColorMatrix>    </filter></defs></svg>