<svg class="animated" id="freepik_stories-warning" xmlns="http://www.w3.org/2000/svg" viewBox="0 0 500 500" version="1.1" xmlns:xlink="http://www.w3.org/1999/xlink" xmlns:svgjs="http://svgjs.com/svgjs"><style>svg#freepik_stories-warning:not(.animated) .animable {opacity: 0;}svg#freepik_stories-warning.animated #freepik--character--inject-19 {animation: 1s 1 forwards linear slideDown;animation-delay: 0s;}svg#freepik_stories-warning.animated #freepik--Character--inject-19 {animation: 1s 1 forwards linear slideDown,1.5s Infinite  linear heartbeat;animation-delay: 0s,1s;}            @keyframes slideDown {                0% {                    opacity: 0;                    transform: translateY(-30px);                }                100% {                    opacity: 1;                    transform: translateY(0);                }            }                    @keyframes heartbeat {                0% {                    transform: scale(1);                }                10% {                    transform: scale(1.1);                }                30% {                    transform: scale(1);                }                40% {                    transform: scale(1);                }                50% {                    transform: scale(1.1);                }                60% {                    transform: scale(1);                }                100% {                    transform: scale(1);                }            }        </style><g id="freepik--Floor--inject-19" class="animable" style="transform-origin: 250px 349.6px;"><ellipse id="freepik--floor--inject-19" cx="250" cy="349.6" rx="231.56" ry="133.25" style="fill: rgb(245, 245, 245); transform-origin: 250px 349.6px;" class="animable"></ellipse></g><g id="freepik--Shadows--inject-19" class="animable" style="transform-origin: 254.054px 360.798px;"><ellipse id="freepik--Shadow--inject-19" cx="328.13" cy="307.4" rx="58.38" ry="33.71" style="fill: rgb(224, 224, 224); transform-origin: 328.13px 307.4px;" class="animable"></ellipse><path id="freepik--shadow--inject-19" d="M201.37,447.28,238.31,426c1.37-.79,1.37-2.07,0-2.86l-36.94-21.33a5.51,5.51,0,0,0-5,0l-36.94,21.33c-1.37.79-1.37,2.07,0,2.86l36.94,21.33A5.51,5.51,0,0,0,201.37,447.28Z" style="fill: rgb(224, 224, 224); transform-origin: 198.87px 424.558px;" class="animable"></path><path id="freepik--shadow--inject-19" d="M302.05,433.8,339,412.47c1.37-.79,1.37-2.07,0-2.86l-36.94-21.33a5.49,5.49,0,0,0-5,0l-36.95,21.33c-1.37.79-1.37,2.07,0,2.86l36.95,21.33A5.49,5.49,0,0,0,302.05,433.8Z" style="fill: rgb(224, 224, 224); transform-origin: 299.555px 411.039px;" class="animable"></path><path id="freepik--shadow--inject-19" d="M422.77,364.33l37-21.33c1.37-.79,1.37-2.07,0-2.86l-37-21.33a5.49,5.49,0,0,0-5,0l-36.94,21.33c-1.37.79-1.37,2.07,0,2.86l36.94,21.33A5.49,5.49,0,0,0,422.77,364.33Z" style="fill: rgb(224, 224, 224); transform-origin: 420.3px 341.57px;" class="animable"></path><path id="freepik--shadow--inject-19" d="M104.32,418.91,48.26,386.44a1.42,1.42,0,0,1,0-2.68l134.3-77.53a5.08,5.08,0,0,1,4.62,0l56.16,32.42c1.27.73,1.27,1.93,0,2.67l-134.4,77.59A5.08,5.08,0,0,1,104.32,418.91Z" style="fill: rgb(224, 224, 224); transform-origin: 145.801px 362.57px;" class="animable"></path></g><g id="freepik--Barrier--inject-19" class="animable" style="transform-origin: 145.105px 304.497px;"><g id="freepik--barrier--inject-19" class="animable" style="transform-origin: 145.105px 304.497px;"><polygon points="66.96 322.22 201.54 244.52 208.08 213.2 73.49 290.9 66.96 322.22" style="fill: rgb(224, 224, 224); transform-origin: 137.52px 267.71px;" id="elc2jdnm11hl5" class="animable"></polygon><polygon points="73.5 290.9 208.08 213.2 205.89 211.93 71.31 289.63 73.5 290.9" style="fill: rgb(245, 245, 245); transform-origin: 139.695px 251.415px;" id="eltoyvb46emjb" class="animable"></polygon><polygon points="110.4 269.59 108.21 268.33 132.73 254.17 134.92 255.44 110.4 269.59" style="fill: rgb(186, 104, 200); transform-origin: 121.565px 261.88px;" id="elacv26p7es2" class="animable"></polygon><polygon points="159.64 241.16 157.45 239.9 181.97 225.74 184.16 227.01 159.64 241.16" style="fill: rgb(186, 104, 200); transform-origin: 170.805px 233.45px;" id="elxcpasm3t1lr" class="animable"></polygon><polygon points="73.5 290.9 71.31 289.63 83.65 282.5 85.84 283.77 73.5 290.9" style="fill: rgb(186, 104, 200); transform-origin: 78.575px 286.7px;" id="elm2z2hbmyc7f" class="animable"></polygon><g id="elo1s9wwzhmid"><g style="opacity: 0.4; transform-origin: 127.735px 258.32px;" class="animable"><polygon points="110.4 269.59 108.21 268.33 132.73 254.17 134.92 255.44 110.4 269.59" style="fill: rgb(255, 255, 255); transform-origin: 121.565px 261.88px;" id="elgetr2vkx5rc" class="animable"></polygon><polygon points="159.64 241.16 157.45 239.9 181.97 225.74 184.16 227.01 159.64 241.16" style="fill: rgb(255, 255, 255); transform-origin: 170.805px 233.45px;" id="elg5uq8wkmdho" class="animable"></polygon><polygon points="73.5 290.9 71.31 289.63 83.65 282.5 85.84 283.77 73.5 290.9" style="fill: rgb(255, 255, 255); transform-origin: 78.575px 286.7px;" id="ell535eyu3cel" class="animable"></polygon></g></g><polygon points="73.49 290.9 66.96 322.22 64.77 320.95 71.3 289.63 73.49 290.9" style="fill: rgb(186, 104, 200); transform-origin: 69.13px 305.925px;" id="el8v8j0c0w5bi" class="animable"></polygon><g id="el8msb016khig"><polygon points="73.49 290.9 66.96 322.22 64.77 320.95 71.3 289.63 73.49 290.9" style="opacity: 0.2; transform-origin: 69.13px 305.925px;" class="animable"></polygon></g><polygon points="85.84 283.77 66.96 322.22 73.49 290.9 85.84 283.77" style="fill: rgb(186, 104, 200); transform-origin: 76.4px 302.995px;" id="eloxcjtinnk1" class="animable"></polygon><polygon points="91.5 308.03 110.38 269.58 134.92 255.44 116.03 293.88 91.5 308.03" style="fill: rgb(186, 104, 200); transform-origin: 113.21px 281.735px;" id="elnwuhjy5z7jc" class="animable"></polygon><polygon points="140.76 279.61 159.64 241.16 184.18 227.02 165.3 265.46 140.76 279.61" style="fill: rgb(186, 104, 200); transform-origin: 162.47px 253.315px;" id="el01axq63ti3o7" class="animable"></polygon><polygon points="201.55 244.52 189.2 251.65 208.08 213.2 201.55 244.52" style="fill: rgb(186, 104, 200); transform-origin: 198.64px 232.425px;" id="elblh1trsbi3" class="animable"></polygon><g id="el8514teg81vk"><g style="opacity: 0.35; transform-origin: 137.52px 267.71px;" class="animable"><polygon points="85.84 283.77 66.96 322.22 73.49 290.9 85.84 283.77" id="elsfjko3dq3mj" class="animable" style="transform-origin: 76.4px 302.995px;"></polygon><polygon points="91.5 308.03 110.38 269.58 134.92 255.44 116.03 293.88 91.5 308.03" id="elfe8xhfeuwh" class="animable" style="transform-origin: 113.21px 281.735px;"></polygon><polygon points="140.76 279.61 159.64 241.16 184.18 227.02 165.3 265.46 140.76 279.61" id="el9trsamwcz7d" class="animable" style="transform-origin: 162.47px 253.315px;"></polygon><polygon points="201.55 244.52 189.2 251.65 208.08 213.2 201.55 244.52" id="elppqs3ybkct" class="animable" style="transform-origin: 198.64px 232.425px;"></polygon></g></g><polygon points="58.33 363.64 192.91 285.94 199.44 254.62 64.86 332.32 58.33 363.64" style="fill: rgb(224, 224, 224); transform-origin: 128.885px 309.13px;" id="el3fzc0ebshkl" class="animable"></polygon><polygon points="64.86 332.32 199.44 254.62 197.25 253.36 62.67 331.06 64.86 332.32" style="fill: rgb(245, 245, 245); transform-origin: 131.055px 292.84px;" id="eltho66a8nf9p" class="animable"></polygon><polygon points="101.77 311.01 99.58 309.75 124.09 295.6 126.28 296.86 101.77 311.01" style="fill: rgb(186, 104, 200); transform-origin: 112.93px 303.305px;" id="el3vfpdrbidaf" class="animable"></polygon><polygon points="151.01 282.59 148.81 281.32 173.33 267.17 175.52 268.43 151.01 282.59" style="fill: rgb(186, 104, 200); transform-origin: 162.165px 274.88px;" id="elukls78ae7j" class="animable"></polygon><polygon points="64.86 332.32 62.67 331.06 75.02 323.93 77.21 325.19 64.86 332.32" style="fill: rgb(186, 104, 200); transform-origin: 69.94px 328.125px;" id="elawei3jlcwmm" class="animable"></polygon><g id="el1m3187o3qqg"><g style="opacity: 0.4; transform-origin: 119.095px 299.745px;" class="animable"><polygon points="101.77 311.01 99.58 309.75 124.09 295.6 126.28 296.86 101.77 311.01" style="fill: rgb(255, 255, 255); transform-origin: 112.93px 303.305px;" id="elvbplixy865" class="animable"></polygon><polygon points="151.01 282.59 148.81 281.32 173.33 267.17 175.52 268.43 151.01 282.59" style="fill: rgb(255, 255, 255); transform-origin: 162.165px 274.88px;" id="eliqod22f1k9a" class="animable"></polygon><polygon points="64.86 332.32 62.67 331.06 75.02 323.93 77.21 325.19 64.86 332.32" style="fill: rgb(255, 255, 255); transform-origin: 69.94px 328.125px;" id="elyd28dwdbwyd" class="animable"></polygon></g></g><polygon points="64.86 332.32 58.33 363.64 56.13 362.38 62.67 331.06 64.86 332.32" style="fill: rgb(186, 104, 200); transform-origin: 60.495px 347.35px;" id="elx1j4ajy7xk" class="animable"></polygon><g id="el57po8d1i3de"><polygon points="64.86 332.32 58.33 363.64 56.13 362.38 62.67 331.06 64.86 332.32" style="opacity: 0.2; transform-origin: 60.495px 347.35px;" class="animable"></polygon></g><polygon points="77.21 325.19 58.33 363.64 64.86 332.32 77.21 325.19" style="fill: rgb(186, 104, 200); transform-origin: 67.77px 344.415px;" id="elt5z5kwvwc1" class="animable"></polygon><polygon points="82.86 349.45 101.74 311.01 126.28 296.86 107.4 335.31 82.86 349.45" style="fill: rgb(186, 104, 200); transform-origin: 104.57px 323.155px;" id="elyt4kr6ds4kk" class="animable"></polygon><polygon points="132.13 321.04 151.01 282.59 175.54 268.44 156.66 306.89 132.13 321.04" style="fill: rgb(186, 104, 200); transform-origin: 153.835px 294.74px;" id="elt8flrja84qc" class="animable"></polygon><polygon points="192.91 285.94 180.56 293.07 199.44 254.62 192.91 285.94" style="fill: rgb(186, 104, 200); transform-origin: 190px 273.845px;" id="elbzq3cl7lwok" class="animable"></polygon><g id="el4mo669d9wlv"><g style="opacity: 0.35; transform-origin: 128.885px 309.13px;" class="animable"><polygon points="77.21 325.19 58.33 363.64 64.86 332.32 77.21 325.19" id="el7dv1gw8ivbk" class="animable" style="transform-origin: 67.77px 344.415px;"></polygon><polygon points="82.86 349.45 101.74 311.01 126.28 296.86 107.4 335.31 82.86 349.45" id="elzygyckke8fr" class="animable" style="transform-origin: 104.57px 323.155px;"></polygon><polygon points="132.13 321.04 151.01 282.59 175.54 268.44 156.66 306.89 132.13 321.04" id="elpu1prvjzb2l" class="animable" style="transform-origin: 153.835px 294.74px;"></polygon><polygon points="192.91 285.94 180.56 293.07 199.44 254.62 192.91 285.94" id="el0m26i82z4a1" class="animable" style="transform-origin: 190px 273.845px;"></polygon></g></g><path d="M174.36,320.37,168,324a2.54,2.54,0,0,1-2.31,0l-2-1.17a2,2,0,0,1-.88-2l21.15-100.15a3.47,3.47,0,0,1,1.44-2l6.37-3.67a2.54,2.54,0,0,1,2.31,0l2,1.17a2,2,0,0,1,.88,2L175.79,318.39A3.42,3.42,0,0,1,174.36,320.37Z" style="fill: rgb(69, 90, 100); transform-origin: 179.885px 269.505px;" id="elliwfbt1eqts" class="animable"></path><path d="M174.36,320.37,168,324c-.64.37-1,.09-.88-.63l21.16-100.15a3.38,3.38,0,0,1,1.43-2l6.37-3.68c.64-.37,1-.08.88.64L175.79,318.39A3.42,3.42,0,0,1,174.36,320.37Z" style="fill: rgb(38, 50, 56); transform-origin: 182.04px 270.771px;" id="elzzovmiq3e1" class="animable"></path><polygon points="170.96 313.83 172.85 304.89 177.19 302.39 217.39 325.6 219.28 336.72 214.94 339.22 170.96 313.83" style="fill: rgb(55, 71, 79); transform-origin: 195.12px 320.805px;" id="eluvirhn6i5ek" class="animable"></polygon><polygon points="214.94 339.22 170.96 313.83 172.85 304.89 213.05 328.1 214.94 339.22" style="fill: rgb(69, 90, 100); transform-origin: 192.95px 322.055px;" id="eliru17mnj1vj" class="animable"></polygon><path d="M222.11,347.94l-6.36,3.68a2.63,2.63,0,0,1-2.32,0l-2-1.18a3.24,3.24,0,0,1-1.38-2L188.76,223.27a2.08,2.08,0,0,1,.94-2l6.37-3.68a2.54,2.54,0,0,1,2.31,0l2,1.17a3.21,3.21,0,0,1,1.38,2L223.05,346A2.08,2.08,0,0,1,222.11,347.94Z" style="fill: rgb(55, 71, 79); transform-origin: 205.902px 284.601px;" id="elo9cle10j2m" class="animable"></path><path d="M188.76,223.26l.81,4.74L210,348.46a3.27,3.27,0,0,0,1.38,2l2,1.18a2.63,2.63,0,0,0,2.32,0l6.36-3.68a2.08,2.08,0,0,0,.94-2L201.87,221.19l-.08-.43a3.32,3.32,0,0,0-1.38-2l-2-1.17a2.63,2.63,0,0,0-2.32,0l-6.37,3.68A2.08,2.08,0,0,0,188.76,223.26Z" style="fill: rgb(55, 71, 79); transform-origin: 205.881px 284.615px;" id="el4j978qvfu5i" class="animable"></path><path d="M201.79,220.76,223.05,346a2.08,2.08,0,0,1-.94,2l-6.36,3.68a.87.87,0,0,1-1.38-.65l-21.26-125.2a2,2,0,0,1,.93-2l6.37-3.68A.87.87,0,0,1,201.79,220.76Z" style="fill: rgb(69, 90, 100); transform-origin: 208.077px 285.914px;" id="elwfvvtbkm11k" class="animable"></path><g id="eltl2uvfk23u"><path d="M182.9,225.62l3.33,1.93a5.09,5.09,0,0,0,3.34.45,4.28,4.28,0,0,0,1.29-.45l11-6.36-.08-.43a3.32,3.32,0,0,0-1.38-2l-2-1.17a2.63,2.63,0,0,0-2.32,0c.16-.72.65-1,0-1.34l-2-1.16a2.48,2.48,0,0,0-2.31,0l-6.37,3.67a3.36,3.36,0,0,0-1.44,2Z" style="opacity: 0.15; transform-origin: 192.38px 221.455px;" class="animable"></path></g><path d="M179,217.82a1.62,1.62,0,0,1,1-1.36l12.74-7.35a5.11,5.11,0,0,1,4.63,0l6.23,3.6a1.65,1.65,0,0,1,1,1.32c0,.49,0,2.42,0,2.91a1.62,1.62,0,0,1-1,1.33l-12.73,7.36a5.17,5.17,0,0,1-4.63,0L180,222a1.64,1.64,0,0,1-1-1.31C179,220.22,179,218.3,179,217.82Z" style="fill: rgb(55, 71, 79); transform-origin: 191.8px 217.366px;" id="elaks2p2us4x" class="animable"></path><path d="M179,217.82a1.62,1.62,0,0,1,1-1.36l8.55-4.93v14.65a4.81,4.81,0,0,1-2.31-.55L180,222a1.64,1.64,0,0,1-1-1.31C179,220.22,179,218.3,179,217.82Z" style="fill: rgb(38, 50, 56); transform-origin: 183.775px 218.855px;" id="ela2etbkbivi" class="animable"></path><path d="M190.86,222.74l12.73-7.36c1.28-.73,1.28-1.93,0-2.67l-6.23-3.6a5.11,5.11,0,0,0-4.63,0L180,216.47c-1.28.73-1.28,1.93,0,2.67l6.24,3.6A5.11,5.11,0,0,0,190.86,222.74Z" style="fill: rgb(69, 90, 100); transform-origin: 191.795px 215.924px;" id="el2b3qwbxrylf" class="animable"></path><g id="freepik--Clock--inject-19" class="animable" style="transform-origin: 192.389px 209.426px;"><path d="M198.85,202.32h0l-4.31-2.53h0c-1.24-.63-2.89-.44-4.66.7a14.71,14.71,0,0,0-6.09,11.83c.11,2.11.92,3.56,2.15,4.2h0l4.3,2.54h0c1.23.63,2.88.45,4.66-.7A14.69,14.69,0,0,0,201,206.52C200.89,204.41,200.08,203,198.85,202.32Z" style="fill: rgb(69, 90, 100); transform-origin: 192.395px 209.426px;" id="ella9xryyf9hc" class="animable"></path><path d="M190.14,219l-4.21-2.49h0c-1.23-.64-2-2.09-2.15-4.2a13.2,13.2,0,0,1,1.29-5.94l4.3,2.53a13.05,13.05,0,0,0-1.28,5.94C188.18,216.91,189,218.34,190.14,219Z" style="fill: rgb(38, 50, 56); transform-origin: 186.959px 212.685px;" id="el5sezrr8o74h" class="animable"></path><path d="M194.91,218.35A14.69,14.69,0,0,0,201,206.52c-.2-4.23-3.26-5.81-6.83-3.51a14.7,14.7,0,0,0-6.08,11.83C188.28,219.08,191.34,220.65,194.91,218.35Z" style="fill: rgb(55, 71, 79); transform-origin: 194.545px 210.681px;" id="elq2ieura7q6e" class="animable"></path><path d="M191.92,218.06c-2.1.1-2.45-2.26-2.5-3.29a13.47,13.47,0,0,1,5.47-10.63,4.76,4.76,0,0,1,2.26-.83c2.1-.11,2.44,2.26,2.49,3.28a13.42,13.42,0,0,1-5.46,10.63,4.9,4.9,0,0,1-2.26.84Z" style="fill: rgb(38, 50, 56); transform-origin: 194.53px 210.685px;" id="elul0f8jl0q6p" class="animable"></path><path d="M194.89,204.14a5.09,5.09,0,0,1,2-.8,5,5,0,0,1,.58,2.24A13.41,13.41,0,0,1,192,216.21a5,5,0,0,1-2,.81,5.28,5.28,0,0,1-.58-2.25A13.47,13.47,0,0,1,194.89,204.14Z" style="fill: rgb(186, 104, 200); transform-origin: 193.445px 210.18px;" id="elwn0c917kbr8" class="animable"></path></g><path d="M74.49,378l-6.37,3.67a2.54,2.54,0,0,1-2.31,0l-2-1.17a2,2,0,0,1-.88-2L84.05,278.41a3.47,3.47,0,0,1,1.44-2l6.37-3.67a2.54,2.54,0,0,1,2.31,0l2,1.17a2,2,0,0,1,.88,2L75.92,376.05A3.42,3.42,0,0,1,74.49,378Z" style="fill: rgb(69, 90, 100); transform-origin: 79.99px 327.205px;" id="elnaesn8n1z4s" class="animable"></path><path d="M74.49,378l-6.37,3.67c-.64.37-1,.09-.88-.64L88.39,280.91a3.45,3.45,0,0,1,1.44-2l6.37-3.68c.64-.37,1-.08.88.64L75.92,376.05A3.42,3.42,0,0,1,74.49,378Z" style="fill: rgb(38, 50, 56); transform-origin: 82.16px 328.451px;" id="elcrrdv333gtj" class="animable"></path><polygon points="70.98 371.64 72.87 362.7 77.2 360.2 117.41 383.41 119.3 394.53 114.96 397.03 70.98 371.64" style="fill: rgb(55, 71, 79); transform-origin: 95.14px 378.615px;" id="el1kw65jlqhj6" class="animable"></polygon><polygon points="114.96 397.03 70.98 371.64 72.87 362.7 113.07 385.92 114.96 397.03" style="fill: rgb(69, 90, 100); transform-origin: 92.97px 379.865px;" id="elj5ab4azkt5g" class="animable"></polygon><path d="M122.24,405.6l-6.36,3.67a2.56,2.56,0,0,1-2.32,0l-2-1.17a3.27,3.27,0,0,1-1.38-2L88.89,280.92a2.07,2.07,0,0,1,.94-2l6.37-3.68a2.54,2.54,0,0,1,2.31,0l2,1.17a3.21,3.21,0,0,1,1.38,2l21.26,125.19A2.08,2.08,0,0,1,122.24,405.6Z" style="fill: rgb(55, 71, 79); transform-origin: 106.021px 342.255px;" id="el7howrbgu02r" class="animable"></path><path d="M88.89,280.92l.81,4.74,20.45,120.45a3.26,3.26,0,0,0,1.38,2l2,1.18a2.63,2.63,0,0,0,2.32,0l6.36-3.68a2.08,2.08,0,0,0,.94-2L102,278.85l-.08-.43a3.29,3.29,0,0,0-1.38-2l-2-1.17a2.56,2.56,0,0,0-2.32,0l-6.37,3.67A2.11,2.11,0,0,0,88.89,280.92Z" style="fill: rgb(55, 71, 79); transform-origin: 106.022px 342.266px;" id="elzftn5pamzn8" class="animable"></path><path d="M101.92,278.42l21.26,125.19a2.08,2.08,0,0,1-.94,2l-6.36,3.67a.87.87,0,0,1-1.39-.64L93.24,283.43a2,2,0,0,1,.93-2l6.37-3.68A.87.87,0,0,1,101.92,278.42Z" style="fill: rgb(69, 90, 100); transform-origin: 108.207px 343.519px;" id="eleyep4tss7qc" class="animable"></path><g id="el06awxjnmf4ja"><path d="M83,283.28l3.33,1.93a5.09,5.09,0,0,0,3.34.45,4.38,4.38,0,0,0,1.29-.45l11-6.36-.08-.43a3.29,3.29,0,0,0-1.38-2l-2-1.17a2.56,2.56,0,0,0-2.32,0c.16-.72.65-1,0-1.34l-2-1.16a2.5,2.5,0,0,0-2.32,0l-6.37,3.67a3.38,3.38,0,0,0-1.43,2Z" style="opacity: 0.15; transform-origin: 92.48px 279.115px;" class="animable"></path></g><path d="M79.16,275.48a1.62,1.62,0,0,1,1-1.36l12.74-7.35a5.11,5.11,0,0,1,4.63,0l6.23,3.6a1.65,1.65,0,0,1,1,1.32c0,.49,0,2.42,0,2.9a1.62,1.62,0,0,1-1,1.34L91,283.28a5.11,5.11,0,0,1-4.63,0l-6.24-3.6a1.64,1.64,0,0,1-1-1.32C79.15,277.88,79.17,276,79.16,275.48Z" style="fill: rgb(55, 71, 79); transform-origin: 91.945px 275.025px;" id="elznekpgkjtdl" class="animable"></path><path d="M79.16,275.48a1.62,1.62,0,0,1,1-1.36l8.55-4.93v14.65a4.7,4.7,0,0,1-2.31-.56l-6.24-3.6a1.64,1.64,0,0,1-1-1.32C79.15,277.88,79.17,276,79.16,275.48Z" style="fill: rgb(38, 50, 56); transform-origin: 83.9336px 276.515px;" id="elhfn1jmc94bk" class="animable"></path><path d="M91,280.4,103.72,273c1.28-.73,1.28-1.93,0-2.67l-6.23-3.6a5.11,5.11,0,0,0-4.63,0l-12.74,7.35c-1.28.74-1.28,1.94,0,2.68l6.24,3.6A5.17,5.17,0,0,0,91,280.4Z" style="fill: rgb(69, 90, 100); transform-origin: 91.92px 273.553px;" id="elzq8b0i6wu4j" class="animable"></path><g id="freepik--clock--inject-19" class="animable" style="transform-origin: 92.495px 267.095px;"><path d="M99,260h0l-4.31-2.54h0c-1.24-.63-2.89-.45-4.66.7A14.7,14.7,0,0,0,83.9,270c.11,2.11.92,3.56,2.15,4.2h0l4.3,2.53h0c1.23.63,2.88.45,4.66-.7a14.69,14.69,0,0,0,6.08-11.83C101,262.07,100.21,260.62,99,260Z" style="fill: rgb(69, 90, 100); transform-origin: 92.495px 267.095px;" id="el3lv55dvbgwz" class="animable"></path><path d="M90.27,276.66l-4.21-2.49h0c-1.23-.64-2-2.09-2.15-4.2A13.2,13.2,0,0,1,85.19,264l4.3,2.53a13.05,13.05,0,0,0-1.28,5.94C88.31,274.56,89.09,276,90.27,276.66Z" style="fill: rgb(38, 50, 56); transform-origin: 87.0884px 270.33px;" id="elobqqygm67g" class="animable"></path><path d="M95,276a14.69,14.69,0,0,0,6.08-11.83c-.21-4.23-3.26-5.81-6.83-3.51a14.7,14.7,0,0,0-6.08,11.83C88.41,276.74,91.47,278.31,95,276Z" style="fill: rgb(55, 71, 79); transform-origin: 94.625px 268.334px;" id="elqey91l3usj" class="animable"></path><path d="M92.05,275.72c-2.1.1-2.45-2.27-2.5-3.29A13.47,13.47,0,0,1,95,261.8a4.76,4.76,0,0,1,2.26-.83c2.1-.11,2.44,2.26,2.49,3.28a13.43,13.43,0,0,1-5.46,10.63,4.94,4.94,0,0,1-2.26.84Z" style="fill: rgb(38, 50, 56); transform-origin: 94.65px 268.345px;" id="eln2z8szy2wf" class="animable"></path><path d="M95,261.8a5.09,5.09,0,0,1,2-.8,4.93,4.93,0,0,1,.58,2.24,13.43,13.43,0,0,1-5.47,10.63,5,5,0,0,1-2,.81,5.28,5.28,0,0,1-.58-2.25A13.47,13.47,0,0,1,95,261.8Z" style="fill: rgb(186, 104, 200); transform-origin: 93.555px 267.84px;" id="elchv4199ibnn" class="animable"></path></g><polygon points="84.33 297.15 218.91 219.45 216.72 218.19 82.14 295.89 84.33 297.15" style="fill: rgb(245, 245, 245); transform-origin: 150.525px 257.67px;" id="el9hptnb7tzs" class="animable"></polygon><polygon points="84.33 297.15 90.86 336.01 225.44 258.31 218.91 219.45 84.33 297.15" style="fill: rgb(230, 230, 230); transform-origin: 154.885px 277.73px;" id="elqksmwlygw2m" class="animable"></polygon><polygon points="82.14 295.89 88.67 334.75 90.86 336.01 84.33 297.15 82.14 295.89" style="fill: rgb(186, 104, 200); transform-origin: 86.5px 315.95px;" id="el8zr1zjd2ebs" class="animable"></polygon><g id="elqgee768bscq"><polygon points="82.14 295.89 88.67 334.75 90.86 336.01 84.33 297.15 82.14 295.89" style="opacity: 0.2; transform-origin: 86.5px 315.95px;" class="animable"></polygon></g><polygon points="139.94 307.68 145.75 261.69 121.23 275.85 115.42 321.83 139.94 307.68" style="fill: rgb(186, 104, 200); transform-origin: 130.585px 291.76px;" id="elvshymfd2ymj" class="animable"></polygon><polygon points="189.18 279.25 194.99 233.26 170.48 247.42 164.66 293.4 189.18 279.25" style="fill: rgb(186, 104, 200); transform-origin: 179.825px 263.33px;" id="elgshq8hzae4l" class="animable"></polygon><polygon points="96.68 290.02 90.86 336.01 84.33 297.15 96.68 290.02" style="fill: rgb(186, 104, 200); transform-origin: 90.505px 313.015px;" id="elhcrk0uctc14" class="animable"></polygon><polygon points="213.1 265.44 218.91 219.45 225.44 258.31 213.1 265.44" style="fill: rgb(186, 104, 200); transform-origin: 219.27px 242.445px;" id="el22tkrr872pi" class="animable"></polygon><polygon points="121.23 275.85 119.05 274.58 143.56 260.43 145.75 261.69 121.23 275.85" style="fill: rgb(186, 104, 200); transform-origin: 132.4px 268.14px;" id="ela47hm1wij4e" class="animable"></polygon><polygon points="170.48 247.42 168.28 246.15 192.8 232 194.99 233.26 170.48 247.42" style="fill: rgb(186, 104, 200); transform-origin: 181.635px 239.71px;" id="elyixkks2i0q" class="animable"></polygon><polygon points="84.33 297.15 82.14 295.89 94.49 288.76 96.68 290.02 84.33 297.15" style="fill: rgb(186, 104, 200); transform-origin: 89.41px 292.955px;" id="elbqrxcyctr8t" class="animable"></polygon><g id="elwp4aw1wdy4"><g style="opacity: 0.4; transform-origin: 138.565px 264.575px;" class="animable"><polygon points="121.23 275.85 119.05 274.58 143.56 260.43 145.75 261.69 121.23 275.85" style="fill: rgb(255, 255, 255); transform-origin: 132.4px 268.14px;" id="el4j16txchftc" class="animable"></polygon><polygon points="170.48 247.42 168.28 246.15 192.8 232 194.99 233.26 170.48 247.42" style="fill: rgb(255, 255, 255); transform-origin: 181.635px 239.71px;" id="elz4hzldhn9lf" class="animable"></polygon><polygon points="84.33 297.15 82.14 295.89 94.49 288.76 96.68 290.02 84.33 297.15" style="fill: rgb(255, 255, 255); transform-origin: 89.41px 292.955px;" id="elulcb9h8hri9" class="animable"></polygon></g></g><polygon points="92.97 348.55 227.55 270.85 225.36 269.59 90.78 347.29 92.97 348.55" style="fill: rgb(245, 245, 245); transform-origin: 159.165px 309.07px;" id="elsncsqus83ch" class="animable"></polygon><polygon points="92.97 348.55 99.5 387.41 234.08 309.71 227.55 270.85 92.97 348.55" style="fill: rgb(230, 230, 230); transform-origin: 163.525px 329.13px;" id="el646vaxwgxzu" class="animable"></polygon><polygon points="90.78 347.29 97.31 386.15 99.5 387.41 92.97 348.55 90.78 347.29" style="fill: rgb(186, 104, 200); transform-origin: 95.14px 367.35px;" id="elgxu4j9hy8en" class="animable"></polygon><g id="eli40btq3aj9k"><polygon points="90.78 347.29 97.31 386.15 99.5 387.41 92.97 348.55 90.78 347.29" style="opacity: 0.2; transform-origin: 95.14px 367.35px;" class="animable"></polygon></g><polygon points="148.57 359.08 154.39 313.09 129.87 327.24 124.06 373.23 148.57 359.08" style="fill: rgb(186, 104, 200); transform-origin: 139.225px 343.16px;" id="elvzmx021xhnm" class="animable"></polygon><polygon points="197.81 330.65 203.63 284.66 179.11 298.81 173.3 344.8 197.81 330.65" style="fill: rgb(186, 104, 200); transform-origin: 188.465px 314.73px;" id="el13i6f9j8q6e8" class="animable"></polygon><polygon points="105.31 341.42 99.5 387.41 92.97 348.55 105.31 341.42" style="fill: rgb(186, 104, 200); transform-origin: 99.14px 364.415px;" id="elunizi6rl6yb" class="animable"></polygon><polygon points="221.73 316.84 227.55 270.85 234.08 309.71 221.73 316.84" style="fill: rgb(186, 104, 200); transform-origin: 227.905px 293.845px;" id="elslbnep4cel" class="animable"></polygon><polygon points="129.87 327.24 127.68 325.98 152.2 311.82 154.39 313.09 129.87 327.24" style="fill: rgb(186, 104, 200); transform-origin: 141.035px 319.53px;" id="el7ftnbcifhyo" class="animable"></polygon><polygon points="179.11 298.81 176.92 297.55 201.44 283.39 203.63 284.66 179.11 298.81" style="fill: rgb(186, 104, 200); transform-origin: 190.275px 291.1px;" id="el2i91ibl2gcb" class="animable"></polygon><polygon points="92.97 348.55 90.78 347.29 103.12 340.16 105.31 341.42 92.97 348.55" style="fill: rgb(186, 104, 200); transform-origin: 98.045px 344.355px;" id="el3j53hrj6tb5" class="animable"></polygon><g id="elboqc2eso3cf"><g style="opacity: 0.4; transform-origin: 147.205px 315.97px;" class="animable"><polygon points="129.87 327.24 127.68 325.98 152.2 311.82 154.39 313.09 129.87 327.24" style="fill: rgb(255, 255, 255); transform-origin: 141.035px 319.53px;" id="elivtmvjy6fp" class="animable"></polygon><polygon points="179.11 298.81 176.92 297.55 201.44 283.39 203.63 284.66 179.11 298.81" style="fill: rgb(255, 255, 255); transform-origin: 190.275px 291.1px;" id="elvfmy5l03v9" class="animable"></polygon><polygon points="92.97 348.55 90.78 347.29 103.12 340.16 105.31 341.42 92.97 348.55" style="fill: rgb(255, 255, 255); transform-origin: 98.045px 344.355px;" id="elspbvyqwkd9" class="animable"></polygon></g></g></g></g><g id="freepik--Cones--inject-19" class="animable" style="transform-origin: 309.59px 365.466px;"><g id="freepik--Cone--inject-19" class="animable" style="transform-origin: 420.255px 324.089px;"><path d="M383.54,336.2,418,316.31a5.07,5.07,0,0,1,4.63,0L457,336.2a1.6,1.6,0,0,1,1,1.33V340a1.6,1.6,0,0,1-1,1.34l-34.43,19.88a5.15,5.15,0,0,1-4.63,0l-34.44-19.88a1.61,1.61,0,0,1-1-1.34v-2.51A1.61,1.61,0,0,1,383.54,336.2Z" style="fill: rgb(186, 104, 200); transform-origin: 420.25px 338.76px;" id="el4dj6vozd408" class="animable"></path><g id="elmk90s2tyh0i"><path d="M382.59,337.53V340a1.61,1.61,0,0,0,1,1.34L418,361.26a4.72,4.72,0,0,0,2.31.55V315.75a4.62,4.62,0,0,0-2.31.56L383.54,336.2A1.61,1.61,0,0,0,382.59,337.53Z" style="opacity: 0.1; transform-origin: 401.45px 338.78px;" class="animable"></path></g><g id="elmtqjkv7elr"><path d="M420.29,315.75v46.06a4.76,4.76,0,0,0,2.32-.55L457,341.38a1.6,1.6,0,0,0,1-1.34v-2.51a1.6,1.6,0,0,0-1-1.33l-34.43-19.89A4.66,4.66,0,0,0,420.29,315.75Z" style="opacity: 0.3; transform-origin: 439.145px 338.78px;" class="animable"></path></g><path d="M422.61,358.76l34.44-19.89c1.28-.74,1.28-1.93,0-2.67l-34.44-19.89a5.11,5.11,0,0,0-4.63,0L383.53,336.2c-1.27.74-1.27,1.93,0,2.67L418,358.76A5.17,5.17,0,0,0,422.61,358.76Z" style="fill: rgb(186, 104, 200); transform-origin: 420.294px 337.529px;" id="elg3kvvk061lh" class="animable"></path><g id="elxh5igdsy8fc"><path d="M422.61,358.76l34.44-19.89c1.28-.74,1.28-1.93,0-2.67l-34.44-19.89a5.11,5.11,0,0,0-4.63,0L383.53,336.2c-1.27.74-1.27,1.93,0,2.67L418,358.76A5.17,5.17,0,0,0,422.61,358.76Z" style="fill: rgb(255, 255, 255); opacity: 0.5; transform-origin: 420.294px 337.529px;" class="animable"></path></g><g id="els83oqcn7cy"><path d="M420.29,315.76a4.74,4.74,0,0,1,2.32.55l34.44,19.89c1.28.74,1.28,1.93,0,2.67l-34.44,19.89a4.74,4.74,0,0,1-2.32.55Z" style="opacity: 0.05; transform-origin: 439.15px 337.535px;" class="animable"></path></g><path d="M399,335h0l15.24-45.78v0l0,0h0a3.56,3.56,0,0,1,1.66-1.77,9.56,9.56,0,0,1,8.68,0,3.52,3.52,0,0,1,1.66,1.77h0l0,.05h0L441.56,335h0c1.4,4-.56,8.28-5.91,11.37-8.48,4.89-22.22,4.89-30.7,0C399.59,343.31,397.63,339,399,335Z" style="fill: rgb(186, 104, 200); transform-origin: 420.288px 318.223px;" id="elduw0aklg4qm" class="animable"></path><path d="M409.89,302.38l0-.05,2.16-6.51a3.15,3.15,0,0,0,.95,3.27,6.57,6.57,0,0,0,1.36,1,13.11,13.11,0,0,0,11.83,0,6.49,6.49,0,0,0,1.35-1,3.17,3.17,0,0,0,.95-3.28l2.17,6.52v0a3.74,3.74,0,0,1-.48,3.27,6.93,6.93,0,0,1-2.43,2.2,12.09,12.09,0,0,1-2.63,1.08,17.64,17.64,0,0,1-9.72,0,11.81,11.81,0,0,1-2.62-1.08,7,7,0,0,1-2.44-2.2A3.76,3.76,0,0,1,409.89,302.38Z" style="fill: rgb(250, 250, 250); transform-origin: 420.277px 302.686px;" id="el4pj1438t927" class="animable"></path><path d="M401.16,328.6v0l2.17-6.51a6,6,0,0,0-.12,3.27,7.48,7.48,0,0,0,1.84,3.29,12.55,12.55,0,0,0,3,2.36c6.74,3.9,17.67,3.9,24.41,0a12.68,12.68,0,0,0,3-2.36,7.38,7.38,0,0,0,1.84-3.29,5.79,5.79,0,0,0-.12-3.27l2.16,6.5,0,.07a6.62,6.62,0,0,1,.23,3.27c-.44,2.48-2.3,4.89-5.59,6.79-7.61,4.4-19.95,4.4-27.56,0-3.29-1.9-5.15-4.31-5.59-6.79A6.6,6.6,0,0,1,401.16,328.6Z" style="fill: rgb(250, 250, 250); transform-origin: 420.213px 332.055px;" id="el10bf513ala9a" class="animable"></path><path d="M405.53,315.49v0l2.17-6.52a4.44,4.44,0,0,0,.2,3.28,7.7,7.7,0,0,0,3.23,3.28l.09.06c5,2.89,13.12,2.89,18.12,0l.1-.06a7.73,7.73,0,0,0,3.22-3.28,4.4,4.4,0,0,0,.2-3.28l2.17,6.51,0,.05a5.08,5.08,0,0,1,0,3.29,7.5,7.5,0,0,1-2.38,3.27,13.42,13.42,0,0,1-1.75,1.21,18.74,18.74,0,0,1-5.77,2.07,25.58,25.58,0,0,1-9.71,0,18.8,18.8,0,0,1-5.78-2.07,12.64,12.64,0,0,1-1.74-1.21,7.53,7.53,0,0,1-2.39-3.27A5.15,5.15,0,0,1,405.53,315.49Z" style="fill: rgb(250, 250, 250); transform-origin: 420.274px 317.402px;" id="el1ubnkx51aa" class="animable"></path><g id="ellef4gizeu7a"><path d="M420.29,286.37a8.79,8.79,0,0,1,4.34,1,3.52,3.52,0,0,1,1.66,1.77h0l0,.05h0L441.56,335h0c1.4,4-.56,8.28-5.91,11.37a31.45,31.45,0,0,1-15.35,3.67l.13,0A12.89,12.89,0,0,0,431,335.48l-6.34-45.57Z" style="opacity: 0.1; transform-origin: 431.144px 318.206px;" class="animable"></path></g><path d="M424.63,292.42c2.4-1.39,2.4-3.63,0-5a9.56,9.56,0,0,0-8.68,0c-2.4,1.38-2.4,3.62,0,5A9.62,9.62,0,0,0,424.63,292.42Z" style="fill: rgb(186, 104, 200); transform-origin: 420.29px 289.916px;" id="elw81td6mbgd" class="animable"></path><g id="el8i5hrgxwcgf"><path d="M424.63,292.42c2.4-1.39,2.4-3.63,0-5a9.56,9.56,0,0,0-8.68,0c-2.4,1.38-2.4,3.62,0,5A9.62,9.62,0,0,0,424.63,292.42Z" style="fill: rgb(255, 255, 255); opacity: 0.5; transform-origin: 420.29px 289.916px;" class="animable"></path></g></g><g id="freepik--cone--inject-19" class="animable" style="transform-origin: 198.905px 406.821px;"><path d="M162.13,418.91,196.58,399a5,5,0,0,1,4.62,0l34.44,19.89a1.61,1.61,0,0,1,1,1.33v2.52a1.61,1.61,0,0,1-1,1.33L201.2,444a5,5,0,0,1-4.62,0l-34.45-19.88a1.61,1.61,0,0,1-.95-1.33v-2.52A1.61,1.61,0,0,1,162.13,418.91Z" style="fill: rgb(186, 104, 200); transform-origin: 198.91px 421.5px;" id="elaarozf6wvqc" class="animable"></path><g id="elf66xy941nrk"><path d="M161.18,420.24v2.52a1.61,1.61,0,0,0,.95,1.33L196.58,444a4.6,4.6,0,0,0,2.31.56V398.46a4.7,4.7,0,0,0-2.31.56l-34.45,19.89A1.61,1.61,0,0,0,161.18,420.24Z" style="opacity: 0.1; transform-origin: 180.035px 421.51px;" class="animable"></path></g><g id="elsjdtjcqxsf"><path d="M198.89,398.46v46.07a4.62,4.62,0,0,0,2.31-.56l34.44-19.88a1.61,1.61,0,0,0,1-1.33v-2.52a1.61,1.61,0,0,0-1-1.33L201.2,399A4.73,4.73,0,0,0,198.89,398.46Z" style="opacity: 0.3; transform-origin: 217.765px 421.495px;" class="animable"></path></g><path d="M201.2,441.47l34.44-19.89c1.28-.74,1.28-1.93,0-2.67L201.2,399a5.17,5.17,0,0,0-4.63,0l-34.44,19.89c-1.28.74-1.28,1.93,0,2.67l34.44,19.89A5.11,5.11,0,0,0,201.2,441.47Z" style="fill: rgb(186, 104, 200); transform-origin: 198.885px 420.234px;" id="elvr9qlnoau0s" class="animable"></path><g id="el78xr1enfl5l"><path d="M201.2,441.47l34.44-19.89c1.28-.74,1.28-1.93,0-2.67L201.2,399a5.17,5.17,0,0,0-4.63,0l-34.44,19.89c-1.28.74-1.28,1.93,0,2.67l34.44,19.89A5.11,5.11,0,0,0,201.2,441.47Z" style="fill: rgb(255, 255, 255); opacity: 0.5; transform-origin: 198.885px 420.234px;" class="animable"></path></g><g id="el4qjc2i1ufd"><path d="M198.89,398.47a4.84,4.84,0,0,1,2.31.55l34.44,19.89c1.28.74,1.28,1.93,0,2.67L201.2,441.47a4.72,4.72,0,0,1-2.31.55Z" style="opacity: 0.05; transform-origin: 217.745px 420.245px;" class="animable"></path></g><path d="M177.62,417.74h0L192.86,372v-.07h0a3.48,3.48,0,0,1,1.66-1.77,9.56,9.56,0,0,1,8.68,0,3.56,3.56,0,0,1,1.66,1.77h0l0,.05h0l15.25,45.79h0c1.4,4-.57,8.28-5.91,11.37-8.48,4.89-22.23,4.89-30.7,0C178.19,426,176.22,421.72,177.62,417.74Z" style="fill: rgb(186, 104, 200); transform-origin: 198.865px 400.963px;" id="elirnmjl9z72e" class="animable"></path><path d="M188.49,385.09v0l2.17-6.51a3.17,3.17,0,0,0,1,3.28,6.14,6.14,0,0,0,1.35,1,13,13,0,0,0,11.83,0,6.21,6.21,0,0,0,1.36-1,3.16,3.16,0,0,0,.94-3.29l2.17,6.53v0a3.74,3.74,0,0,1-.47,3.27,7,7,0,0,1-2.44,2.2,12.09,12.09,0,0,1-2.63,1.08,17.61,17.61,0,0,1-9.71,0,12.09,12.09,0,0,1-2.63-1.08,6.84,6.84,0,0,1-2.43-2.2A3.72,3.72,0,0,1,188.49,385.09Z" style="fill: rgb(250, 250, 250); transform-origin: 198.904px 385.451px;" id="elwwr41rdj38f" class="animable"></path><path d="M179.75,411.32l0-.05,2.17-6.51a5.79,5.79,0,0,0-.12,3.27,7.4,7.4,0,0,0,1.83,3.29,13,13,0,0,0,3,2.37c6.74,3.89,17.67,3.89,24.41,0a12.82,12.82,0,0,0,3-2.37A7.42,7.42,0,0,0,216,408a5.93,5.93,0,0,0-.12-3.26l2.16,6.49,0,.07a6.63,6.63,0,0,1,.24,3.27c-.44,2.48-2.31,4.9-5.6,6.8-7.61,4.39-19.94,4.39-27.55,0-3.29-1.9-5.15-4.32-5.6-6.8A6.79,6.79,0,0,1,179.75,411.32Z" style="fill: rgb(250, 250, 250); transform-origin: 198.905px 414.701px;" id="el3ypowcn5c9f" class="animable"></path><path d="M184.12,398.2l0,0,2.16-6.51a4.42,4.42,0,0,0,.21,3.27,7.67,7.67,0,0,0,3.22,3.28l.1.06c5,2.89,13.11,2.89,18.12,0l.09-.06a7.62,7.62,0,0,0,3.22-3.28,4.4,4.4,0,0,0,.21-3.28l2.17,6.51v.05a5.15,5.15,0,0,1,0,3.29,7.47,7.47,0,0,1-2.39,3.27,12.64,12.64,0,0,1-1.74,1.21,18.55,18.55,0,0,1-5.78,2.07,25.58,25.58,0,0,1-9.71,0,18.49,18.49,0,0,1-5.77-2.07,12.77,12.77,0,0,1-1.75-1.21,7.37,7.37,0,0,1-2.38-3.27A5.08,5.08,0,0,1,184.12,398.2Z" style="fill: rgb(250, 250, 250); transform-origin: 198.86px 400.112px;" id="eldo3vg1j10c" class="animable"></path><g id="elc0ewawv549s"><path d="M198.89,369.08a8.9,8.9,0,0,1,4.34,1,3.56,3.56,0,0,1,1.66,1.77h0l0,.05h0l15.25,45.79h0c1.4,4-.57,8.28-5.91,11.37a31.37,31.37,0,0,1-15.35,3.67l.13,0a12.89,12.89,0,0,0,10.55-14.56l-6.34-45.58Z" style="opacity: 0.1; transform-origin: 209.728px 400.906px;" class="animable"></path></g><path d="M203.23,375.13c2.4-1.38,2.4-3.63,0-5a9.56,9.56,0,0,0-8.68,0c-2.4,1.38-2.4,3.63,0,5A9.62,9.62,0,0,0,203.23,375.13Z" style="fill: rgb(186, 104, 200); transform-origin: 198.89px 372.626px;" id="elk2qfdx7tvnb" class="animable"></path><g id="el5d62k3cgfb6"><path d="M203.23,375.13c2.4-1.38,2.4-3.63,0-5a9.56,9.56,0,0,0-8.68,0c-2.4,1.38-2.4,3.63,0,5A9.62,9.62,0,0,0,203.23,375.13Z" style="fill: rgb(255, 255, 255); opacity: 0.5; transform-origin: 198.89px 372.626px;" class="animable"></path></g></g><g id="freepik--cone--inject-19" class="animable" style="transform-origin: 299.565px 393.264px;"><path d="M262.81,405.36l34.45-19.89a4.7,4.7,0,0,1,2.31-.56,4.8,4.8,0,0,1,2.32.56l34.43,19.89a1.61,1.61,0,0,1,.95,1.34v2.51a1.61,1.61,0,0,1-.95,1.33l-34.43,19.88a4.69,4.69,0,0,1-2.32.56,4.6,4.6,0,0,1-2.31-.56l-34.45-19.88a1.61,1.61,0,0,1-.95-1.33V406.7A1.61,1.61,0,0,1,262.81,405.36Z" style="fill: rgb(186, 104, 200); transform-origin: 299.565px 407.945px;" id="el0606b5wy3oao" class="animable"></path><g id="elvw00f392ij"><path d="M261.86,406.7v2.51a1.61,1.61,0,0,0,.95,1.33l34.45,19.88a4.6,4.6,0,0,0,2.31.56V384.91a4.7,4.7,0,0,0-2.31.56l-34.45,19.89A1.61,1.61,0,0,0,261.86,406.7Z" style="opacity: 0.1; transform-origin: 280.715px 407.945px;" class="animable"></path></g><g id="el9nkgs4rfser"><path d="M299.57,384.91V431a4.69,4.69,0,0,0,2.32-.56l34.43-19.88a1.61,1.61,0,0,0,.95-1.33V406.7a1.61,1.61,0,0,0-.95-1.34l-34.43-19.89A4.8,4.8,0,0,0,299.57,384.91Z" style="opacity: 0.3; transform-origin: 318.42px 407.955px;" class="animable"></path></g><path d="M301.88,427.92,336.32,408c1.28-.73,1.28-1.93,0-2.67l-34.44-19.88a5.11,5.11,0,0,0-4.63,0l-34.44,19.88c-1.28.74-1.28,1.94,0,2.67l34.44,19.89A5.11,5.11,0,0,0,301.88,427.92Z" style="fill: rgb(186, 104, 200); transform-origin: 299.565px 406.678px;" id="el46er06cn6po" class="animable"></path><g id="elz7vzmwsr10f"><path d="M301.88,427.92,336.32,408c1.28-.73,1.28-1.93,0-2.67l-34.44-19.88a5.11,5.11,0,0,0-4.63,0l-34.44,19.88c-1.28.74-1.28,1.94,0,2.67l34.44,19.89A5.11,5.11,0,0,0,301.88,427.92Z" style="fill: rgb(255, 255, 255); opacity: 0.5; transform-origin: 299.565px 406.678px;" class="animable"></path></g><g id="elbv7y7ynxqvn"><path d="M299.57,384.92a4.73,4.73,0,0,1,2.31.56l34.44,19.88c1.28.74,1.28,1.94,0,2.67l-34.44,19.89a4.72,4.72,0,0,1-2.31.55Z" style="opacity: 0.05; transform-origin: 318.425px 406.695px;" class="animable"></path></g><path d="M278.31,404.19h0l15.24-45.78v-.07h0a3.52,3.52,0,0,1,1.66-1.77,9.56,9.56,0,0,1,8.68,0,3.56,3.56,0,0,1,1.66,1.77h0l0,.05h0l15.24,45.79h0c1.4,4-.56,8.28-5.91,11.37-8.48,4.89-22.22,4.89-30.7,0C278.87,412.47,276.9,408.17,278.31,404.19Z" style="fill: rgb(186, 104, 200); transform-origin: 299.548px 387.373px;" id="elkh92pmumsye" class="animable"></path><path d="M289.17,371.54v-.05l2.17-6.51a3.17,3.17,0,0,0,.95,3.28,6.14,6.14,0,0,0,1.35,1,13,13,0,0,0,11.83,0,6.21,6.21,0,0,0,1.36-1,3.16,3.16,0,0,0,.94-3.29L310,371.5l0,0a3.78,3.78,0,0,1-.48,3.27,6.87,6.87,0,0,1-2.44,2.2,12.09,12.09,0,0,1-2.63,1.08,17.61,17.61,0,0,1-9.71,0,12.09,12.09,0,0,1-2.63-1.08,6.84,6.84,0,0,1-2.43-2.2A3.72,3.72,0,0,1,289.17,371.54Z" style="fill: rgb(250, 250, 250); transform-origin: 299.591px 371.851px;" id="els858c7ck2np" class="animable"></path><path d="M280.44,397.77v0l2.17-6.52a5.79,5.79,0,0,0-.12,3.27,7.4,7.4,0,0,0,1.83,3.29,13,13,0,0,0,3,2.37c6.74,3.89,17.67,3.89,24.41,0a12.82,12.82,0,0,0,3-2.37,7.42,7.42,0,0,0,1.84-3.29,5.93,5.93,0,0,0-.12-3.26l2.16,6.49,0,.07a6.54,6.54,0,0,1,.24,3.28c-.44,2.48-2.3,4.89-5.6,6.79-7.6,4.39-19.94,4.39-27.55,0-3.29-1.9-5.15-4.31-5.6-6.79A6.7,6.7,0,0,1,280.44,397.77Z" style="fill: rgb(250, 250, 250); transform-origin: 299.491px 401.216px;" id="elg6gffbws8em" class="animable"></path><path d="M284.8,384.65l0,0L287,378.1a4.42,4.42,0,0,0,.21,3.27,7.73,7.73,0,0,0,3.22,3.28l.1.06c5,2.89,13.11,2.89,18.12,0l.09-.06a7.62,7.62,0,0,0,3.22-3.28,4.4,4.4,0,0,0,.21-3.28l2.17,6.52v.05a5.12,5.12,0,0,1,0,3.28,7.42,7.42,0,0,1-2.39,3.27,11.86,11.86,0,0,1-1.74,1.22,18.79,18.79,0,0,1-5.78,2.06,25.58,25.58,0,0,1-9.71,0,18.73,18.73,0,0,1-5.77-2.06,12,12,0,0,1-1.75-1.22,7.39,7.39,0,0,1-2.38-3.27A5.08,5.08,0,0,1,284.8,384.65Z" style="fill: rgb(250, 250, 250); transform-origin: 299.573px 386.522px;" id="el9l1nd2dt7oo" class="animable"></path><g id="elle7ye27wye"><path d="M299.57,355.53a8.9,8.9,0,0,1,4.34,1,3.56,3.56,0,0,1,1.66,1.77h0l0,.05h0l15.24,45.79h0c1.4,4-.56,8.28-5.91,11.37a31.37,31.37,0,0,1-15.35,3.67l.13,0a12.89,12.89,0,0,0,10.55-14.56l-6.34-45.58Z" style="opacity: 0.1; transform-origin: 310.399px 387.356px;" class="animable"></path></g><path d="M303.91,361.58c2.4-1.38,2.4-3.63,0-5a9.56,9.56,0,0,0-8.68,0c-2.4,1.38-2.4,3.63,0,5A9.56,9.56,0,0,0,303.91,361.58Z" style="fill: rgb(186, 104, 200); transform-origin: 299.57px 359.08px;" id="elffiok1fkobr" class="animable"></path><g id="el63m4sho7o49"><path d="M303.91,361.58c2.4-1.38,2.4-3.63,0-5a9.56,9.56,0,0,0-8.68,0c-2.4,1.38-2.4,3.63,0,5A9.56,9.56,0,0,0,303.91,361.58Z" style="fill: rgb(255, 255, 255); opacity: 0.5; transform-origin: 299.57px 359.08px;" class="animable"></path></g></g></g><g id="freepik--Character--inject-19" class="animable animator-active" style="transform-origin: 306.473px 180.635px;"><g id="freepik--character--inject-19" class="animable" style="transform-origin: 306.473px 180.635px;"><polygon points="301.38 301.38 311.57 301.38 312.93 283.31 301.38 285.12 301.38 301.38" style="fill: rgb(255, 168, 167); transform-origin: 307.155px 292.345px;" id="elosfda0sn46c" class="animable"></polygon><path d="M324,320.37c.34.32.24,2.51-.14,3.1s-2.71,2.6-6.9,2.9c-4,.29-7.56-.25-9.91-1.74s-3.48-3.14-3.7-5.41,0-4.48-1.05-6.23-2.6-3.44-2.95-4.32a8.82,8.82,0,0,1,0-4.63Z" style="fill: rgb(38, 50, 56); transform-origin: 311.624px 315.243px;" id="ellkz7xlbt10g" class="animable"></path><path d="M313,300.49a9.18,9.18,0,0,0,.46,2.54,23.18,23.18,0,0,0,2.45,5,20.51,20.51,0,0,0,1.67,2.36c1.21,1.43,2.71,2.61,4,4a8.18,8.18,0,0,1,2.46,4.91c.17,3.13-3.23,4.2-5.85,4.67a19.42,19.42,0,0,1-8.51-.43,7.82,7.82,0,0,1-5.73-6.25c-.15-.87-.09-1.76-.2-2.63a12.24,12.24,0,0,0-2.43-5.49,16,16,0,0,1-1.87-3c-.82-1.94-.17-4.13.36-6.06.45-1.67,1-3.56,1.55-3.4,0,.87,0,1,.61,1.54.79.75.82,1.86,1.65,2.52a11.53,11.53,0,0,1-.58-2.23,1.25,1.25,0,0,1,.18-.89,2.26,2.26,0,0,1,1-.51,19,19,0,0,1,3.81-.87,11.55,11.55,0,0,1,3.71,0,1.63,1.63,0,0,1,.93.54,1.87,1.87,0,0,1,.34,1.08C313,298.37,313,299.66,313,300.49Z" style="fill: rgb(186, 104, 200); transform-origin: 311.553px 310.186px;" id="el53yhpgljtov" class="animable"></path><g id="elicalmc9tfdj"><path d="M313,300.49a9.18,9.18,0,0,0,.46,2.54,23.18,23.18,0,0,0,2.45,5,20.51,20.51,0,0,0,1.67,2.36c1.21,1.43,2.71,2.61,4,4a8.18,8.18,0,0,1,2.46,4.91c.17,3.13-3.23,4.2-5.85,4.67a19.42,19.42,0,0,1-8.51-.43,7.82,7.82,0,0,1-5.73-6.25c-.15-.87-.09-1.76-.2-2.63a12.24,12.24,0,0,0-2.43-5.49,16,16,0,0,1-1.87-3c-.82-1.94-.17-4.13.36-6.06.45-1.67,1-3.56,1.55-3.4,0,.87,0,1,.61,1.54.79.75.82,1.86,1.65,2.52a11.53,11.53,0,0,1-.58-2.23,1.25,1.25,0,0,1,.18-.89,2.26,2.26,0,0,1,1-.51,19,19,0,0,1,3.81-.87,11.55,11.55,0,0,1,3.71,0,1.63,1.63,0,0,1,.93.54,1.87,1.87,0,0,1,.34,1.08C313,298.37,313,299.66,313,300.49Z" style="opacity: 0.4; transform-origin: 311.553px 310.186px;" class="animable"></path></g><path d="M316.36,308.69c-1.16-.87-3.78-.88-5.21-.73a8.58,8.58,0,0,0-4.06,1.43.94.94,0,0,1-1.2-.1h0A.87.87,0,0,1,306,308a8.82,8.82,0,0,1,4.57-1.7c3.52-.24,4.55.36,4.55.36S316.71,307.65,316.36,308.69Z" style="fill: rgb(245, 245, 245); transform-origin: 311.032px 307.902px;" id="elpp72lkjo9bo" class="animable"></path><path d="M319.05,311.9c-1.47-.86-4.35-.74-5.78-.59a8.17,8.17,0,0,0-3.95,1.51.93.93,0,0,1-1.2-.1h0a.87.87,0,0,1,.09-1.33,9.17,9.17,0,0,1,4.67-1.83c3.52-.25,4.44.47,4.44.47A3,3,0,0,1,319.05,311.9Z" style="fill: rgb(245, 245, 245); transform-origin: 313.451px 311.25px;" id="ell6x1i6vtu0c" class="animable"></path><path d="M309.15,302.9a8.62,8.62,0,0,1,4.42.37c.62.34,1,1.32.63,1.57a8.25,8.25,0,0,0-3.92-.54,11.65,11.65,0,0,0-3.8,1.05c-.31.13-.66.32-1,.49a.83.83,0,0,1-1.16-.36h0a.77.77,0,0,1,.3-1A11.15,11.15,0,0,1,309.15,302.9Z" style="fill: rgb(245, 245, 245); transform-origin: 309.294px 304.358px;" id="els9238so9fxn" class="animable"></path><polygon points="333.13 292.59 344.31 292.97 344.49 273.77 331.51 273.01 333.13 292.59" style="fill: rgb(255, 168, 167); transform-origin: 338px 282.99px;" id="el2qbcrqx8jfa" class="animable"></polygon><path d="M366.23,306a3.78,3.78,0,0,1-.15,2.79c-.39.82-4.66,3.22-10.41,2.83a23.86,23.86,0,0,1-11.89-4.16c-2.19-1.45-4.48-1.72-7.33-1.88s-6.58-1.58-7.21-2.92.1-3.62.1-3.62Z" style="fill: rgb(38, 50, 56); transform-origin: 347.706px 305.351px;" id="elr08pz4ebovp" class="animable"></path><path d="M343,288.07l.46-.09a2,2,0,0,1,.76-.05,1.55,1.55,0,0,1,.71.48,14.58,14.58,0,0,1,1.47,2.31c1.2,2,3.73,3.59,6.5,5.08,1.88,1,3.72,1.79,5.66,2.67s4.6,1.43,6.15,2.47c2.26,1.52,2.55,5.35,0,6.86-2.22,1.3-8.06,2.71-14.18,1-3.33-.95-7-4.51-11.41-4.85-2.79-.22-8.05-1-9.84-3.12-.66-.94.22-3.91,1-6.47.79-2.8,1.54-7.17,2.47-6.93a1.29,1.29,0,0,0,.49,1c.34.35.8.58,1.18.9a7.55,7.55,0,0,1,1.54,2.22,1.6,1.6,0,0,0,.79.85c.46.18.82-.12,1.23-.31a2.43,2.43,0,0,1,1.66-.12,10.25,10.25,0,0,0-.29-1.64,1,1,0,0,1-.05-.53.92.92,0,0,1,.36-.4A8.83,8.83,0,0,1,343,288.07Z" style="fill: rgb(186, 104, 200); transform-origin: 347.782px 298.505px;" id="el9zoj2lvzwj9" class="animable"></path><g id="el19v5r54tpan"><path d="M343,288.07l.46-.09a2,2,0,0,1,.76-.05,1.55,1.55,0,0,1,.71.48,14.58,14.58,0,0,1,1.47,2.31c1.2,2,3.73,3.59,6.5,5.08,1.88,1,3.72,1.79,5.66,2.67s4.6,1.43,6.15,2.47c2.26,1.52,2.55,5.35,0,6.86-2.22,1.3-8.06,2.71-14.18,1-3.33-.95-7-4.51-11.41-4.85-2.79-.22-8.05-1-9.84-3.12-.66-.94.22-3.91,1-6.47.79-2.8,1.54-7.17,2.47-6.93a1.29,1.29,0,0,0,.49,1c.34.35.8.58,1.18.9a7.55,7.55,0,0,1,1.54,2.22,1.6,1.6,0,0,0,.79.85c.46.18.82-.12,1.23-.31a2.43,2.43,0,0,1,1.66-.12,10.25,10.25,0,0,0-.29-1.64,1,1,0,0,1-.05-.53.92.92,0,0,1,.36-.4A8.83,8.83,0,0,1,343,288.07Z" style="opacity: 0.4; transform-origin: 347.782px 298.505px;" class="animable"></path></g><path d="M350.32,294.29a2.59,2.59,0,0,0-2.06-1.38c-1.27-.23-3.5.7-4.89,1.84a1,1,0,0,0,.15,1.72h0a1,1,0,0,0,1.18-.13A8,8,0,0,1,350.32,294.29Z" style="fill: rgb(245, 245, 245); transform-origin: 346.634px 294.74px;" id="elsuvso18nhw" class="animable"></path><path d="M354.24,296.49a3,3,0,0,0-2.43-1.26,9.33,9.33,0,0,0-5.36,2,1,1,0,0,0,.14,1.66h0a1,1,0,0,0,1.14-.13A8,8,0,0,1,354.24,296.49Z" style="fill: rgb(245, 245, 245); transform-origin: 350.156px 297.121px;" id="elwtejbrpx3z" class="animable"></path><path d="M358.58,298.47a3.36,3.36,0,0,0-2.53-1.14,8.93,8.93,0,0,0-5.13,2,1,1,0,0,0,.14,1.66h0a1,1,0,0,0,1.14-.14A7.61,7.61,0,0,1,358.58,298.47Z" style="fill: rgb(245, 245, 245); transform-origin: 354.561px 299.219px;" id="el1lu1dhw79rd" class="animable"></path><path d="M302.08,151.32c-2.84,22-.34,71.1-.34,71.1-.24,2.74-.91,10.27-2.08,22.35-1.39,14.28.65,45.18.65,45.18s7.64,3.38,13.11.76c0,0,8-51.77,9.81-66,1.56-12.39,4.68-37.94,4.68-37.94L329,225.67s-1.06,7.9-1.41,14.75c-.44,8.38,3.74,42.11,3.74,42.11s8.53,1.75,13.94-.43c0,0,4-47.92,4.72-58,1-13.46,3-52,2.24-72.35Z" style="fill: rgb(55, 71, 79); transform-origin: 325.787px 221.513px;" id="el0u4utvt54bic" class="animable"></path><g id="elunlvcc5dxjp"><path d="M327.91,186.81l1.34-8.77s10.65-1.42,15.48-6A17.5,17.5,0,0,1,332.18,180l-1.39,7.57-1.93,34.14Z" style="fill: rgb(38, 50, 56); opacity: 0.6; transform-origin: 336.32px 196.875px;" class="animable"></path></g><path d="M402.76,113.73s-3.39.17-8,.13-15.66-.78-20-2.15c-6.56-4.13-17.3-15.63-21-19.42-4.31-4.38-7.37-5.55-15.09-5.33-3.66.1-1.31,12.32,4,17.9,4.9,5.2,14.28,15.78,25,20.62,4.62,2.08,10.08,1.34,22.14.72a107.28,107.28,0,0,0,14.43-1.32C407.38,124.38,402.76,113.73,402.76,113.73Z" style="fill: rgb(255, 168, 167); transform-origin: 371.117px 106.894px;" id="elts8mj9v6oim" class="animable"></path><path d="M309.75,61.53c-.08.68,2.3,2.08,2.3,2.08l-.67-4.08Z" style="fill: rgb(186, 104, 200); transform-origin: 310.899px 61.57px;" id="eltpdd3ldr6wj" class="animable"></path><g id="elmsjvr2ctnaj"><path d="M309.75,61.53c-.08.68,2.3,2.08,2.3,2.08l-.67-4.08Z" style="opacity: 0.3; transform-origin: 310.899px 61.57px;" class="animable"></path></g><path d="M306.15,89.13c-4.31.77-4.46,3.38-5.4,7.66-.47,2.12-1.52,6.67-1.1,10.49l3.2,25.25-1.1,26.86c6.93,7.54,34.64,10,49.77-1.09,0,0-.16-45.56-.86-53.22-1.22-13.4-7.29-18.16-16.2-18.13l-15.25,1.3Z" style="fill: rgb(186, 104, 200); transform-origin: 325.536px 126.395px;" id="el5oelgdozhes" class="animable"></path><g id="ellxx72hmx4jo"><path d="M306.15,89.13c-4.31.77-4.46,3.38-5.4,7.66-.47,2.12-1.52,6.67-1.1,10.49l3.2,25.25-1.1,26.86c6.93,7.54,34.64,10,49.77-1.09,0,0-.16-45.56-.86-53.22-1.22-13.4-7.29-18.16-16.2-18.13l-15.25,1.3Z" style="fill: rgb(255, 255, 255); opacity: 0.7; transform-origin: 325.536px 126.395px;" class="animable"></path></g><path d="M322.39,55.76a13.53,13.53,0,1,0,13.48-13.58A13.53,13.53,0,0,0,322.39,55.76Z" style="fill: rgb(38, 50, 56); transform-origin: 335.92px 55.7099px;" id="el4dzpob7t9p3" class="animable"></path><path d="M318.15,58.41l-2.89-7.76a5.07,5.07,0,0,0-4.2,1.49c-1.79,1.85-.77,7.63,1.5,13.28,0,0,2.23,10.29,3.11,12a4.7,4.7,0,0,0,2.71,2.17Z" style="fill: rgb(38, 50, 56); transform-origin: 314.263px 65.1035px;" id="el7dlmz9ube1j" class="animable"></path><path d="M317.93,65.88c-.82.49-2-1.09-3-2.16s-4.36-2.51-6,1,1.49,8.28,4.12,9.1c4.53,1.4,5.2-1.5,5.2-1.5l.4,16.32s3,7.23,11,8.29,6.35-5.54,3.71-8.78l0-5a28.29,28.29,0,0,0,6.1.29c3.32-.53,5.41-3.16,6.41-6.76,1.6-5.79,2.2-10.47.78-21.84C345,42.42,330.53,42.34,322.71,47.3S317.93,65.88,317.93,65.88Z" style="fill: rgb(255, 168, 167); transform-origin: 327.963px 70.6365px;" id="eldlpha1qg4x" class="animable"></path><path d="M318,67c-1.31-.38-2.26-2.47-3.13-3.25-1.43-1.29.37-13.07.37-13.07a5.58,5.58,0,0,1,1.36-6c1.95-2.16,5.22-2.41,10.8-3.31,2.75-.44,6-.66,8.73-1.16a7,7,0,0,1,4.3.2,8.45,8.45,0,0,1,3.67,2.68c2.11,2.68,2.57,7.09-.16,9.54a8.77,8.77,0,0,1-5.52,2c-3.51.12-6.55-2-9.87-2.78a2.51,2.51,0,0,0-2.07.19,3.67,3.67,0,0,0-1,2.06,6,6,0,0,1-3.05,3.65,7.16,7.16,0,0,0-1.31.7c-.69.55-.49,1.15-.49,1.91,0,1-.06,1.95-.09,2.92a7.13,7.13,0,0,1-.29,2.16A2.41,2.41,0,0,1,318.85,67,1.46,1.46,0,0,1,318,67Z" style="fill: rgb(38, 50, 56); transform-origin: 330.077px 53.5135px;" id="elslbrpykzbl" class="animable"></path><path d="M333.29,83.19s-6.9-1.49-9.5-2.86a9.64,9.64,0,0,1-3.55-4.3,10.89,10.89,0,0,0,1.9,4.76c1.9,2.42,11.16,4.37,11.16,4.37Z" style="fill: rgb(242, 143, 143); transform-origin: 326.77px 80.595px;" id="elxbz4hs43e7" class="animable"></path><path d="M332,64.08a1.49,1.49,0,1,1-1.49-1.55A1.51,1.51,0,0,1,332,64.08Z" style="fill: rgb(38, 50, 56); transform-origin: 330.511px 64.02px;" id="elswdtqr5rfuo" class="animable"></path><path d="M330.19,59.49l-3.3,2.14a2.06,2.06,0,0,1,.6-2.79A1.93,1.93,0,0,1,330.19,59.49Z" style="fill: rgb(38, 50, 56); transform-origin: 328.386px 60.0841px;" id="ele2oeh8s3g7" class="animable"></path><path d="M345,61l-3.13-1.9a1.75,1.75,0,0,1,2.46-.66A1.91,1.91,0,0,1,345,61Z" style="fill: rgb(38, 50, 56); transform-origin: 343.556px 59.5897px;" id="elmuzoebt179j" class="animable"></path><path d="M343.75,63.5a1.52,1.52,0,0,1-1.48,1.55,1.55,1.55,0,1,1,1.48-1.55Z" style="fill: rgb(38, 50, 56); transform-origin: 342.2px 63.5016px;" id="eldv7b0zg15ul" class="animable"></path><polygon points="335.58 62.09 337.23 72.56 342.08 70.47 335.58 62.09" style="fill: rgb(242, 143, 143); transform-origin: 338.83px 67.325px;" id="elrxndlajle8e" class="animable"></polygon><path d="M308.91,55.74a20.17,20.17,0,0,0,.84,5.79c.48-.49,1-1,1.55-1.43a34.3,34.3,0,0,1,10.52-5.85h0c8.86-3.15,19.38-3.49,27.48-.39a19.58,19.58,0,0,0-1.1-4.91,20.24,20.24,0,0,0-39.31,6.79Z" style="fill: rgb(186, 104, 200); transform-origin: 329.095px 48.5109px;" id="elubyaff06w0j" class="animable"></path><path d="M319.53,36.52c1.06-.39,6.28-1.42,6.7-1.51,2.71-.54,6.93-.09,10.93,3.9a20.63,20.63,0,0,1,5.75,11.63l-5.56,1.17h-1.74c-.26-4-4.67-13.07-12-14.1a7.28,7.28,0,0,0-1-.08,9.48,9.48,0,0,0-2.9.31,27.12,27.12,0,0,0-3.07,2A4.52,4.52,0,0,1,319.53,36.52Z" style="fill: rgb(186, 104, 200); transform-origin: 329.775px 43.2672px;" id="el0fn7vs2jb12" class="animable"></path><g id="elby98f29obya"><path d="M319.53,36.52c1.06-.39,6.28-1.42,6.7-1.51,2.71-.54,6.93-.09,10.93,3.9a20.63,20.63,0,0,1,5.75,11.63l-5.56,1.17h-1.74c-.26-4-4.67-13.07-12-14.1a7.28,7.28,0,0,0-1-.08,9.48,9.48,0,0,0-2.9.31,27.12,27.12,0,0,0-3.07,2A4.52,4.52,0,0,1,319.53,36.52Z" style="fill: rgb(255, 255, 255); opacity: 0.45; transform-origin: 329.775px 43.2672px;" class="animable"></path></g><path d="M335.61,51.72c-.31-4.69-6.3-16.29-15.92-13.89a28.46,28.46,0,0,0-3.08,2,4.58,4.58,0,0,1,2.93-3.32c2.53-.93,7.44-1,12.07,3.58a20.48,20.48,0,0,1,5.73,11.62Z" style="fill: rgb(186, 104, 200); transform-origin: 326.975px 43.8628px;" id="elwf2ma5eyxt" class="animable"></path><g id="elim6u2sv4y8"><path d="M335.61,51.72c-.31-4.69-6.3-16.29-15.92-13.89a28.46,28.46,0,0,0-3.08,2,4.58,4.58,0,0,1,2.93-3.32c2.53-.93,7.44-1,12.07,3.58a20.48,20.48,0,0,1,5.73,11.62Z" style="opacity: 0.3; transform-origin: 326.975px 43.8628px;" class="animable"></path></g><path d="M321.84,52.65a22.73,22.73,0,0,1,9.73-7.11c4.35-1.81,12.84-1.11,16.63-.68,6.65.74,8.1,2.31,8.09,3.3,0,.24,0,1.32,0,1.57a1,1,0,0,1-.2.62c-1.15,1.41-6.77,3.51-6.77,3.51-8.1-3.1-18.62-2.76-27.48.39Z" style="fill: rgb(186, 104, 200); transform-origin: 339.065px 49.305px;" id="elrxwb2s3ourm" class="animable"></path><g id="el4z5oyg43egh"><path d="M321.84,52.65a22.73,22.73,0,0,1,9.73-7.11c4.35-1.81,12.84-1.11,16.63-.68,6.65.74,8.1,2.31,8.09,3.3,0,.24,0,1.32,0,1.57a1,1,0,0,1-.2.62c-1.15,1.41-6.77,3.51-6.77,3.51-8.1-3.1-18.62-2.76-27.48.39Z" style="opacity: 0.15; transform-origin: 339.065px 49.305px;" class="animable"></path></g><path d="M321.84,54.25c8.86-3.15,19.38-3.49,27.48-.39,0,0,5.62-2.1,6.77-3.51.61-.79.33-3-7.89-3.89-3.79-.43-12.28-1.13-16.63.68A22.73,22.73,0,0,0,321.84,54.25Z" style="fill: rgb(186, 104, 200); transform-origin: 339.067px 50.105px;" id="elfioz5u72bka" class="animable"></path><g id="elfhr4aec06vn"><path d="M321.84,54.25c8.86-3.15,19.38-3.49,27.48-.39,0,0,5.62-2.1,6.77-3.51.61-.79.33-3-7.89-3.89-3.79-.43-12.28-1.13-16.63.68A22.73,22.73,0,0,0,321.84,54.25Z" style="opacity: 0.3; transform-origin: 339.067px 50.105px;" class="animable"></path></g><path d="M352.58,115.83c-.44-10-1.19-18.77-4.9-23.45s-5.53-5.57-14.33-5.43v.58A3,3,0,0,1,335.68,89a51.79,51.79,0,0,1,6.77,15c2.55,9.69,3,29.1,3.12,40.75s-.25,22.92-.25,22.92,6-1.26,7.82-4.21C353.94,145.56,353,125.53,352.58,115.83Zm-29.15-16.4c-1.25-5.31-3.69-8.81-4.85-11.52L305.3,89.06c-4.05,1.87-7.19,6.74-6.8,11.18l4.24,33.39c-.51,9.55-2.62,21.72-3.19,30.16,4.8,6.51,24.64,7.26,24.64,7.26.33-2.19,2.05-13.28,1.35-40.05C325.14,115.94,325,106.2,323.43,99.43Z" style="fill: rgb(186, 104, 200); transform-origin: 325.96px 128.993px;" id="elzuwzyv0736" class="animable"></path><path d="M400.09,121.72a19,19,0,0,1-1-6.68l.22-.12a24.75,24.75,0,0,0,7.24-1.06l1.32.64c1.54,2.23,2.53,8.89.85,9.37a43.1,43.1,0,0,1-4.55,1C401.71,125.05,400.64,123.15,400.09,121.72Z" style="fill: rgb(242, 143, 143); transform-origin: 404.338px 119.371px;" id="elwd39xtnan4g" class="animable"></path><path d="M405.54,124.3c6.52-.22,8.93-3.52,9.83-9.24s.76-13.19.83-15.16-.51-2.66-1.3-2.78c-.3,0-1.55.28-1.69,2.39-.26,3.86-.36,6.23-1.1,6.2s-.61-2.88-.55-6.78c0-2.62-.05-4.83-1.51-4.83s-1.95,1.56-2,5.11,0,6.18-.93,6.25c-.76.06-.6-3.71-.77-6.14s-.17-3.88-1.69-3.85-1.75,2-1.69,4.37a94.2,94.2,0,0,1-.25,9.78c-.42,1.41-1.88-2.05-2.94-3.47-1.75-2.32-3.88-1.26-3,.86a41.48,41.48,0,0,1,2.36,8C399.56,117.65,400.67,124.32,405.54,124.3Z" style="fill: rgb(255, 168, 167); transform-origin: 406.39px 109.2px;" id="elqxg274i64nm" class="animable"></path><path d="M405.52,112.49s3.92,4.09,2.5,8.46a5.78,5.78,0,0,0,.71-5.86A4.44,4.44,0,0,0,405.52,112.49Z" style="fill: rgb(242, 143, 143); transform-origin: 407.371px 116.72px;" id="elv7wo5inyoq" class="animable"></path><path d="M242,152.09a16.7,16.7,0,0,1,.07-1.87,13.88,13.88,0,0,1,1.49-5.73c1-1.81,2.63-2.2,4.49-2.91,3-1.15,4.08-.47,7.12-1.57,4.32-1.57,21.06-8.77,26-11.06,0,0,7.36-23.11,9.88-30,2.59-7.11,7-9.34,14.75-9.94,2.55,5.34,2,15-2.49,24.77,0,0-6,15.93-8.64,22.63-1.9,4.87-3.94,5.62-15.41,8.68-6.12,1.63-22.05,6.34-24.45,7.31a26.31,26.31,0,0,0-2.53,2c-2.55,1.95-5.15,6.17-9.71,1.11C242,154.9,242.07,153,242,152.09Z" style="fill: rgb(255, 168, 167); transform-origin: 274.658px 123.459px;" id="elhjjhyrepmtm" class="animable"></path><path d="M244.64,87.32a1.4,1.4,0,0,1,.81-1.11,4.34,4.34,0,0,1,3.94,0,1.4,1.4,0,0,1,.81,1.11h0V169.4c0,.87-1.25,1.59-2.79,1.59s-2.78-.72-2.78-1.59h0V87.32Z" style="fill: rgb(224, 224, 224); transform-origin: 247.415px 128.364px;" id="elklln22jkm3n" class="animable"></path><path d="M202.44,122.2l87.47-50.51a2.65,2.65,0,0,0,1.2-2.07V41.25a2.65,2.65,0,0,0-1.2-2.07L287.81,38a2.59,2.59,0,0,0-2.39,0l-87.48,50.5a2.65,2.65,0,0,0-1.2,2.07v28.37a2.65,2.65,0,0,0,1.2,2.07l2.1,1.22A2.67,2.67,0,0,0,202.44,122.2Z" style="fill: rgb(55, 71, 79); transform-origin: 243.925px 80.104px;" id="elj73nvsb6ugg" class="animable"></path><path d="M197.1,89.36a2.45,2.45,0,0,0-.36,1.18v28.37a2.65,2.65,0,0,0,1.2,2.07l2.1,1.22a2.67,2.67,0,0,0,2.4,0l25.76-14.88Z" style="fill: rgb(38, 50, 56); transform-origin: 212.47px 105.922px;" id="el0j41cu0btd0s" class="animable"></path><path d="M291.05,69.63V41.26c0-.76-.54-1.07-1.2-.69l-87.47,50.5a2.64,2.64,0,0,0-1.2,2.08v28.36c0,.77.53,1.08,1.2.7L289.85,71.7A2.65,2.65,0,0,0,291.05,69.63Z" style="fill: rgb(69, 90, 100); transform-origin: 246.115px 81.3899px;" id="eltxf8rwjkfs" class="animable"></path><path d="M227.82,92.31l.85-7.4a1.14,1.14,0,0,1,.16-.52.74.74,0,0,1,.25-.27l1.74-1a.15.15,0,0,1,.2,0,.34.34,0,0,1,.09.27s0,.09,0,.17l-1.72,13.9a1.57,1.57,0,0,1-.21.66,1.17,1.17,0,0,1-.45.5l-1.1.64c-.18.1-.32.1-.43,0a.76.76,0,0,1-.23-.4l-1-4L225,100a2.67,2.67,0,0,1-.23.67,1,1,0,0,1-.43.49l-1.1.64a.39.39,0,0,1-.45,0,.56.56,0,0,1-.22-.41L220.82,89.5a1,1,0,0,1,0-.16.94.94,0,0,1,.08-.36.49.49,0,0,1,.21-.25l1.74-1a.25.25,0,0,1,.25,0c.08,0,.14.15.16.34l.85,6.41.78-4.15a4.53,4.53,0,0,1,.12-.44.73.73,0,0,1,.34-.41l1.24-.72c.16-.1.27-.08.33,0a.72.72,0,0,1,.12.3Z" style="fill: rgb(186, 104, 200); transform-origin: 225.964px 92.4766px;" id="elns6czv58a" class="animable"></path><path d="M237.43,79.3c.18-.1.31-.11.4,0a.79.79,0,0,1,.2.34l2.89,11.2a.87.87,0,0,1,.05.28,1,1,0,0,1-.08.37.6.6,0,0,1-.21.25l-1.67,1c-.18.1-.3.12-.38,0a.55.55,0,0,1-.14-.26L238.12,91l-3.53,2L234.22,95a1.87,1.87,0,0,1-.14.42,1,1,0,0,1-.38.39l-1.67,1a.16.16,0,0,1-.21,0,.37.37,0,0,1-.09-.27,1.45,1.45,0,0,1,.06-.33l2.89-14.55a3.09,3.09,0,0,1,.19-.56,1,1,0,0,1,.41-.46Zm-2.15,10.17,2.15-1.24-1.08-4.29Z" style="fill: rgb(186, 104, 200); transform-origin: 236.349px 88.0352px;" id="el6napup6ffbr" class="animable"></path><path d="M246.67,74a4.71,4.71,0,0,1,1.56-.61,1.7,1.7,0,0,1,1.18.17,1.87,1.87,0,0,1,.74,1,5.7,5.7,0,0,1,.26,1.92,9.08,9.08,0,0,1-.41,2.79,7,7,0,0,1-1.17,2.21l1.65,3.92a.65.65,0,0,1,0,.2.8.8,0,0,1-.09.36.57.57,0,0,1-.21.26l-1.8,1c-.18.1-.3.11-.38,0a1.2,1.2,0,0,1-.18-.26l-1.47-3.52-1.22.7v4.37a1.06,1.06,0,0,1-.11.45.62.62,0,0,1-.25.31l-1.74,1a.19.19,0,0,1-.25,0,.45.45,0,0,1-.11-.33V76.8a1.06,1.06,0,0,1,.11-.45.67.67,0,0,1,.25-.31ZM245.17,81l1.5-.86a2.91,2.91,0,0,0,.92-.86,2.49,2.49,0,0,0,.36-1.4c0-.57-.12-.9-.36-1a1.18,1.18,0,0,0-.92.2l-1.5.87Z" style="fill: rgb(186, 104, 200); transform-origin: 246.578px 81.8339px;" id="elmxck2c6trq" class="animable"></path><path d="M258.64,81.36c-.15.08-.27.09-.36,0a.5.5,0,0,1-.18-.18l-3-5.23v6.9a1,1,0,0,1-.11.45.62.62,0,0,1-.25.31l-1.74,1a.19.19,0,0,1-.25,0,.45.45,0,0,1-.11-.33V71.09a1.06,1.06,0,0,1,.11-.45.67.67,0,0,1,.25-.31l1.38-.8c.15-.08.27-.09.36,0a.5.5,0,0,1,.18.18l3,5.23V68a1.06,1.06,0,0,1,.11-.45.62.62,0,0,1,.25-.31l1.74-1a.19.19,0,0,1,.25,0,.45.45,0,0,1,.11.33V79.8a1.06,1.06,0,0,1-.11.45.67.67,0,0,1-.25.31Z" style="fill: rgb(186, 104, 200); transform-origin: 256.51px 75.425px;" id="eltqbnea5s8ll" class="animable"></path><path d="M263.26,78.69a.18.18,0,0,1-.25,0,.43.43,0,0,1-.11-.32V65.14a1.06,1.06,0,0,1,.11-.45.67.67,0,0,1,.25-.31l1.74-1a.18.18,0,0,1,.25,0,.44.44,0,0,1,.11.33v13.2a1.06,1.06,0,0,1-.11.45.67.67,0,0,1-.25.31Z" style="fill: rgb(186, 104, 200); transform-origin: 264.13px 71.035px;" id="elowmndnr43gr" class="animable"></path><path d="M273.92,72.54a.34.34,0,0,1-.37,0,.54.54,0,0,1-.17-.18l-3-5.23v6.9a1.06,1.06,0,0,1-.11.45.62.62,0,0,1-.25.31l-1.74,1a.19.19,0,0,1-.25,0,.45.45,0,0,1-.11-.33V62.27a1.06,1.06,0,0,1,.11-.45.67.67,0,0,1,.25-.31l1.38-.8c.15-.08.27-.09.36,0a.43.43,0,0,1,.18.18l3,5.23V59.2a1.14,1.14,0,0,1,.11-.46.64.64,0,0,1,.25-.3l1.74-1a.19.19,0,0,1,.25,0,.45.45,0,0,1,.11.33V71a1.06,1.06,0,0,1-.11.45.67.67,0,0,1-.25.31Z" style="fill: rgb(186, 104, 200); transform-origin: 271.79px 66.615px;" id="eljz93xqp5w79" class="animable"></path><path d="M282,56.64a2.75,2.75,0,0,0-.76.63,3,3,0,0,0-.49.81,4,4,0,0,0-.29.92,7.8,7.8,0,0,0-.13,1c0,.19,0,.44,0,.76v1c0,.34,0,.66,0,1s0,.55,0,.73a4.89,4.89,0,0,0,.12.82,1.42,1.42,0,0,0,.3.59.68.68,0,0,0,.5.23,1.41,1.41,0,0,0,.75-.24,3.05,3.05,0,0,0,.65-.5,3.32,3.32,0,0,0,.53-.69,4,4,0,0,0,.36-.9,4.36,4.36,0,0,0,.13-1.12l-1.11.64a.18.18,0,0,1-.25,0,.43.43,0,0,1-.11-.32V59.73a1.06,1.06,0,0,1,.11-.45.67.67,0,0,1,.25-.31l3.21-1.85a.19.19,0,0,1,.25,0,.45.45,0,0,1,.11.33v2.62a10.14,10.14,0,0,1-.32,2.53,9.9,9.9,0,0,1-.88,2.28,9,9,0,0,1-1.3,1.86A6.76,6.76,0,0,1,282,68.08a3.5,3.5,0,0,1-1.71.55,2,2,0,0,1-1.28-.46,2.85,2.85,0,0,1-.81-1.3,7,7,0,0,1-.33-1.94c0-.55,0-1.15,0-1.79s0-1.26,0-1.85a11.15,11.15,0,0,1,.32-2.32,10.7,10.7,0,0,1,.82-2.24,9.06,9.06,0,0,1,1.28-1.94A6.41,6.41,0,0,1,282,53.37a3.55,3.55,0,0,1,1.67-.55,2.12,2.12,0,0,1,1.26.33,2.28,2.28,0,0,1,.81,1,3.1,3.1,0,0,1,.32,1.27.73.73,0,0,1-.08.37.54.54,0,0,1-.21.25L284,57c-.13.08-.23.08-.31,0l-.22-.24a1.08,1.08,0,0,0-.5-.39A1.27,1.27,0,0,0,282,56.64Z" style="fill: rgb(186, 104, 200); transform-origin: 282.001px 60.7233px;" id="elkikrc2b4aq" class="animable"></path><path d="M212.16,92.26c.07,0,.15.07.22.21l5.56,11.63a.64.64,0,0,1-.25.82l-11.13,6.43a.46.46,0,0,1-.22.07c-.13,0-.18-.12-.12-.34L212,92.5c.05-.16.13-.24.21-.24m0-.89h0a1.13,1.13,0,0,0-1.06.87l-5.72,18.58a1.14,1.14,0,0,0,.14,1.07,1,1,0,0,0,.82.41,1.28,1.28,0,0,0,.66-.19l11.13-6.42a1.53,1.53,0,0,0,.61-2l-5.56-11.64a1.13,1.13,0,0,0-1-.71Z" style="fill: rgb(186, 104, 200); transform-origin: 212.151px 101.82px;" id="el37t2opkr2w3" class="animable"></path><path d="M211.84,102.39l-.13-2.62c0-.58,0-1,0-1.26a2.2,2.2,0,0,1,.18-.93,1.15,1.15,0,0,1,.48-.57c.23-.14.46-.13.54.08a3.82,3.82,0,0,1,0,1q0,.42,0,.87l-.17,2.89a4.94,4.94,0,0,1-.13.93.73.73,0,0,1-.31.48c-.15.09-.26,0-.31-.11A3.36,3.36,0,0,1,211.84,102.39Zm.46,3.56a.36.36,0,0,1-.44,0c-.13-.09-.19-.29-.19-.59a1.78,1.78,0,0,1,.18-.78,1.14,1.14,0,0,1,.44-.53.34.34,0,0,1,.45,0,.74.74,0,0,1,.18.56,1.79,1.79,0,0,1-.18.81A1.19,1.19,0,0,1,212.3,106Z" style="fill: rgb(186, 104, 200); transform-origin: 212.306px 101.471px;" id="elhnjil32rero" class="animable"></path><path d="M256.46,139.54c-4.34.69-6.13-.46-7.58,1.74a38.81,38.81,0,0,1-3.69,4.59,1.22,1.22,0,0,0-.4.86c.06.41.5.62.89.72a5.32,5.32,0,0,0,4.63-1.13,28.5,28.5,0,0,1,4.45-2Z" style="fill: rgb(255, 168, 167); transform-origin: 250.625px 143.562px;" id="elmxbykgb0dyo" class="animable"></path><path d="M244.63,140.77a11,11,0,0,1-1.68,1,12.54,12.54,0,0,0-2.42,1.54,3.34,3.34,0,0,0-1.12,2.6,6.15,6.15,0,0,1,.17,1.47c-.13.92-1.15,1.65-1,2.56.13.61.79,1,1,1.59.33,1-.75,2-.51,3.08a3.62,3.62,0,0,0,.93,1.32c.45.54.77,1.2,1.26,1.7.82.84,2.33.93,3.44.91,1.46,0,3.26-.41,4.21-1.63a1.62,1.62,0,0,0,.18-1.9,2.19,2.19,0,0,1-.36-.5,1,1,0,0,1,.26-.93,3.37,3.37,0,0,0,.62-.8,2.45,2.45,0,0,0-.2-1.77c-.31-.93.1-1.53.18-2.43a3.13,3.13,0,0,0-.81-2.35c-.37-.39-.86-.65-1.26-1a1.38,1.38,0,0,0-.89-.58c-.17,0-2-.89-2-1.2Z" style="fill: rgb(255, 168, 167); transform-origin: 244.129px 149.656px;" id="el96tr3pvz6ej" class="animable"></path><path d="M250.21,156.3v-9.91l.71-.48s2.53,1.94,4.78,1.81a8.82,8.82,0,0,1-4.27,0v7.51c-.39.35-.78.72-1.19,1.07Z" style="fill: rgb(242, 143, 143); transform-origin: 252.955px 151.105px;" id="elwqh00ix51e" class="animable"></path><path d="M245.37,146s-.8,1,.31,1.44,2.8-.07,3.62-.5a3.29,3.29,0,0,1,.3,1.06s-3.23,1.21-4.23,0S245.37,146,245.37,146Z" style="fill: rgb(242, 143, 143); transform-origin: 247.263px 147.269px;" id="elfw6ec5kt5zm" class="animable"></path><path d="M325.54,153.91c-10.39-.61-20.37-3.33-24.22-6-.2,1.56-.39,3.12-.58,4.65,3.29,2.75,13.69,5.73,24.58,6.41C325.41,157.47,325.48,155.77,325.54,153.91Z" style="fill: rgb(250, 250, 250); transform-origin: 313.14px 153.44px;" id="el5i1htyatdal" class="animable"></path><path d="M301.93,142.79c3.58,2.62,13.42,5.37,23.73,6,0-1.58,0-3.26,0-5-9.89-.62-19.36-3.18-23.29-5.7Q302.2,140.39,301.93,142.79Z" style="fill: rgb(250, 250, 250); transform-origin: 313.795px 143.44px;" id="el8swk3ybkj37" class="animable"></path><path d="M345.53,141.54c0,1.13,0,2.23,0,3.25,0,.59,0,1.18,0,1.76a20.27,20.27,0,0,0,7.82-4.89c0-1.67-.05-3.33-.08-4.94A20.55,20.55,0,0,1,345.53,141.54Z" style="fill: rgb(250, 250, 250); transform-origin: 349.44px 141.635px;" id="el4um7aeo2ncv" class="animable"></path><path d="M353.43,151.68c0-1.71,0-3.42,0-5.11a20.45,20.45,0,0,1-7.85,5c0,1.78,0,3.5,0,5.11A20.45,20.45,0,0,0,353.43,151.68Z" style="fill: rgb(250, 250, 250); transform-origin: 349.505px 151.625px;" id="elsthhvvcqodf" class="animable"></path><path d="M350,81.62a5.71,5.71,0,0,0-2.59-4.48,1.82,1.82,0,0,0-1.81-.19h0L343,78.48l3.7,6.31,2.59-1.49h0A1.83,1.83,0,0,0,350,81.62Z" style="fill: rgb(69, 90, 100); transform-origin: 346.507px 80.7913px;" id="elv048i0uo44g" class="animable"></path><path d="M344.83,78.63a5.72,5.72,0,0,1,2.59,4.48c0,1.65-1.16,2.32-2.59,1.5a5.72,5.72,0,0,1-2.59-4.48C342.24,78.48,343.4,77.81,344.83,78.63Z" style="fill: rgb(55, 71, 79); transform-origin: 344.83px 81.62px;" id="elej5m06z9zba" class="animable"></path><path d="M339.66,75.65v.85a1.22,1.22,0,0,0,.55,1l4.62,2.67v-1.5Z" style="fill: rgb(55, 71, 79); transform-origin: 342.245px 77.91px;" id="elugy2bcjl04s" class="animable"></path><polygon points="342.24 74.15 339.66 75.65 344.83 78.63 347.42 77.14 342.24 74.15" style="fill: rgb(69, 90, 100); transform-origin: 343.54px 76.39px;" id="el2me8ps6n6tc" class="animable"></polygon><path d="M349.47,76l.4-1.12c.25-.67.59-1.56.92-2.45s.66-1.79,1-2.43a4.59,4.59,0,0,1,.21-.44,1.44,1.44,0,0,1,.18-.33.7.7,0,0,1,.42-.17l.17.08a.67.67,0,0,1,.14.42,1.52,1.52,0,0,1-.12.36l-.2.44c-.3.65-.77,1.48-1.22,2.32L350.07,75l-.59,1Z" style="fill: rgb(224, 224, 224); transform-origin: 351.19px 72.53px;" id="ellq0oynjgple" class="animable"></path><path d="M351.67,78.1l1-.59L355,76.24c.83-.47,1.66-.94,2.3-1.24l.45-.2a1.52,1.52,0,0,1,.35-.13.79.79,0,0,1,.43.14l.08.17a.79.79,0,0,1-.17.42,1.44,1.44,0,0,1-.33.19l-.43.21c-.65.3-1.55.63-2.44,1l-2.44.93-1.12.41Z" style="fill: rgb(224, 224, 224); transform-origin: 355.14px 76.405px;" id="eldw6lijdhi84" class="animable"></path><path d="M351.82,81.4l1.18.16,2.59.4c.94.15,1.88.28,2.58.44l.47.12a1.4,1.4,0,0,1,.36.11.74.74,0,0,1,.25.37l0,.19a.74.74,0,0,1-.39.22,1.3,1.3,0,0,1-.37,0l-.48-.1c-.69-.15-1.6-.45-2.51-.72L353,81.78l-1.13-.37Z" style="fill: rgb(224, 224, 224); transform-origin: 355.535px 82.4116px;" id="elyyww6u9gs" class="animable"></path><path d="M350.62,84.29l.87.82,1.88,1.83c.68.66,1.38,1.32,1.85,1.85l.32.37a1.43,1.43,0,0,1,.22.3.72.72,0,0,1,0,.45l-.14.12a.67.67,0,0,1-.45,0,1.08,1.08,0,0,1-.27-.26l-.33-.35c-.48-.53-1.05-1.3-1.63-2l-1.6-2.07-.72-1Z" style="fill: rgb(224, 224, 224); transform-origin: 353.208px 87.1795px;" id="el0u6qum6128d" class="animable"></path><polygon points="346.17 76.79 344.41 77.81 345.29 78.31 347.05 77.3 346.17 76.79" style="fill: rgb(55, 71, 79); transform-origin: 345.73px 77.55px;" id="el10qxwtd89jl" class="animable"></polygon><polygon points="344.41 77.81 346.17 76.79 346.17 77.12 344.7 77.97 344.41 77.81" style="fill: rgb(38, 50, 56); transform-origin: 345.29px 77.38px;" id="eli83nceenbhi" class="animable"></polygon><polygon points="346.17 77.12 346.77 77.46 347.05 77.3 346.17 76.79 346.17 77.12" id="elex76tp9mz3r" class="animable" style="transform-origin: 346.61px 77.125px;"></polygon></g></g><g id="freepik--Skull--inject-19" class="animable" style="transform-origin: 116.852px 140.689px;"><g id="freepik--skull--inject-19" class="animable" style="transform-origin: 116.852px 140.689px;"><path d="M166.49,135.66c-.37-1.92-1.51-2.86-3-2.62s-2.22-.93-2.45-2.83a4.7,4.7,0,0,0-1.52-3.28c-.43-.32-7.56-4.31-8.39-4.86a1.87,1.87,0,0,0-1.45-.28c-2.67.51-5.37,4.61-6,9.12V131a16.78,16.78,0,0,1-3.92,9.09L82.57,200.16c-2.87,3-5.95,4.45-8.7,4.2a4,4,0,0,0-3,1.31A13.89,13.89,0,0,0,67.2,217c.36,1.94,1.47,2.91,2.91,2.72s2.19,1,2.41,2.9A4.65,4.65,0,0,0,74.1,226c.4.28,7.48,4.24,8.32,4.8a1.9,1.9,0,0,0,1.4.31c2.66-.44,5.39-4.5,6-9v-.06a19.59,19.59,0,0,1,4.56-10.45l54.69-57.42c3.64-3.82,7.49-5.62,11.09-5.79A4.42,4.42,0,0,0,163,147,13.89,13.89,0,0,0,166.49,135.66Z" style="fill: rgb(69, 90, 100); transform-origin: 116.857px 176.442px;" id="el1iyxxextc53" class="animable"></path><path d="M153.54,144.52l8.57-11.92a3.83,3.83,0,0,1-1-2.39,4.7,4.7,0,0,0-1.52-3.28c-.43-.32-7.56-4.31-8.39-4.86a1.87,1.87,0,0,0-1.45-.28c-2.67.51-5.37,4.61-6,9.12V131a18.67,18.67,0,0,1-2.17,6.65Z" style="fill: rgb(55, 71, 79); transform-origin: 151.845px 133.133px;" id="elnqky4f9ahc8" class="animable"></path><path d="M156.36,157.58a2.51,2.51,0,0,0-1.81-.25,5.77,5.77,0,0,0-3,2.2c-2.75,3.43-5.83,5.55-8.7,5.85l-53,5.55a4.22,4.22,0,0,0-1.5-2.54c-1.16-.83-7.62-4.41-8.51-4.93-1.15-.68-2.66-.35-4.16,1.09a12.32,12.32,0,0,0-3,7.13,9.78,9.78,0,0,1-2.44,5.65,11.28,11.28,0,0,0-3,6c-.53,3.28.18,5.92,1.64,6.9.54.37,6.5,3.72,8.35,4.83a2.57,2.57,0,0,0,1.88.34,5.25,5.25,0,0,0,2.73-1.77c3.6-4,7.46-6.64,11.09-7l50.93-5.34v0a4.44,4.44,0,0,0,1.77,3.19c1.17.71,7.48,4.3,8.34,4.81,1.17.71,2.72.36,4.25-1.15a12.38,12.38,0,0,0,3-7.17,9.89,9.89,0,0,1,2.41-5.68,11.32,11.32,0,0,0,2.91-6.08c.52-3.37-.28-6-1.84-6.9C164.15,162.08,157.92,158.46,156.36,157.58Z" style="fill: rgb(69, 90, 100); transform-origin: 116.882px 176.357px;" id="elda8mgbqiot" class="animable"></path><path d="M87.73,185.2l-16.39-9.46a7.49,7.49,0,0,1-1.16,1.59,11.28,11.28,0,0,0-3,6c-.53,3.28.18,5.92,1.64,6.9.54.37,6.5,3.72,8.35,4.83a2.57,2.57,0,0,0,1.88.34,5.25,5.25,0,0,0,2.73-1.77,29.2,29.2,0,0,1,5-4.49Z" style="fill: rgb(55, 71, 79); transform-origin: 77.3675px 185.596px;" id="elq552r5wacvi" class="animable"></path><path d="M147,163.74a9.74,9.74,0,0,1-4.21,1.64l-4.92.51-6.11,6.32,27.74-1.42Z" style="fill: rgb(55, 71, 79); transform-origin: 145.63px 167.975px;" id="elbs3n27rixd" class="animable"></path><path d="M142.25,181.48l1.59-.17v0a4.44,4.44,0,0,0,1.77,3.19c1.17.71,7.48,4.3,8.34,4.81,1.17.71,2.72.36,4.25-1.15a7.93,7.93,0,0,0,.87-1.07l.45-7.48-17.71-2.6C141.82,177.41,142,179.3,142.25,181.48Z" style="fill: rgb(55, 71, 79); transform-origin: 150.665px 183.337px;" id="elp1bbcfwfem" class="animable"></path><path d="M89.83,170.93c-.29-1.2-11.45,24.65-10.74,24.51a5.25,5.25,0,0,0,2.73-1.77c3.6-4,7.46-6.64,11.09-7l2.81-.3L82.57,200.16a16.89,16.89,0,0,1-3.16,2.64l8.76,4.52c.22,5.62-8.76,17.36-8.76,17.36l-8-4.57a3.84,3.84,0,0,1,1.07,2.51A4.65,4.65,0,0,0,74.1,226c.4.28,7.48,4.24,8.32,4.8a1.9,1.9,0,0,0,1.4.31c2.66-.44,5.39-4.5,6-9v-.06a22,22,0,0,1,2.53-7.66,14.51,14.51,0,0,1,2-2.79L121,183.7V173.19l-8.32-4.66h0Z" style="fill: rgb(55, 71, 79); transform-origin: 96.205px 199.834px;" id="elunidocwm0oq" class="animable"></path><path d="M79.16,210.47a4.07,4.07,0,0,1,3-1.31c2.75.25,5.83-1.18,8.7-4.19l57.25-60.12a16.75,16.75,0,0,0,3.92-9.08v-.05c.61-4.51,3.31-8.62,6-9.13,1.6-.3,2.75,1.23,3,3.62.23,1.9,1.15,3,2.45,2.83s2.58.7,3,2.62A13.89,13.89,0,0,1,163,147a4.42,4.42,0,0,1-2.74,1.39c-3.6.17-7.45,2-11.09,5.79L94.43,211.62a19.59,19.59,0,0,0-4.56,10.45v.06c-.65,4.52-3.38,8.58-6,9-1.59.26-2.71-1.31-3-3.73-.22-1.91-1.12-3.07-2.4-2.9-1.45.2-2.56-.77-2.92-2.71A13.92,13.92,0,0,1,79.16,210.47Z" style="fill: rgb(186, 104, 200); transform-origin: 121.026px 178.855px;" id="elwy39ue03xgg" class="animable"></path><path d="M99.51,110.24a16.61,16.61,0,0,0-9.15,10.25c-1.31,4.52-.92,12.57,3.85,12.94,3.31.25,10.54-5.67,12.8-12.89S105.88,107.64,99.51,110.24Z" style="fill: rgb(69, 90, 100); transform-origin: 98.7113px 121.518px;" id="elxdzicnusvso" class="animable"></path><path d="M125.88,95C130,92,133.72,91.7,135,94.7s.92,11.51-3.85,17.39c-3.31,4.07-10.54,6.49-12.8,1.89S119.51,99.77,125.88,95Z" style="fill: rgb(69, 90, 100); transform-origin: 126.644px 104.536px;" id="el1aeynospz2f" class="animable"></path><path d="M112.7,134.87c1,3.69,3.66,3.42,5,1.52s1.06-3.92-.15-6.74-4.87-6.9-4.87-6.9-3.67,8.32-4.88,12.53-1.51,6.58-.15,6.91S111.7,139.7,112.7,134.87Z" style="fill: rgb(69, 90, 100); transform-origin: 112.671px 132.483px;" id="eldjln1khkvbm" class="animable"></path><path d="M148.76,101.16c0-5.51,3.23-9.65,3.23-25.85,0-8.32-2.71-15.26-8.14-18.43-1.38-.8-7-4.06-8.46-4.89-5.15-2.92-12.71-2.49-22.7,3.27-20.71,12-31,34.81-31,51S85,122.88,85,128.39s-5.89,12.15-3.23,18.39a4.63,4.63,0,0,0,1.85,2.38c1.76,1,7.63,4.42,8.31,4.8,1.14.65,2.44.31,3.72-.24.13,1.32.18,2.87.18,4.71,0,0,8.51,5,8.93,5.27,1.59,1,6.48,2.89,16.31-2.78,12.35-7.13,16.91-17.22,16.91-17.22,0-7.12.78-11,3.63-15.2s7.77-3.37,10.43-12.68S148.76,106.66,148.76,101.16Z" style="fill: rgb(69, 90, 100); transform-origin: 116.903px 107.521px;" id="el86vhownqhp4" class="animable"></path><path d="M95.6,153.72c.13,1.32.18,2.87.18,4.71,0,0,8.51,5,8.93,5.27a8,8,0,0,0,3.82,1.1V154l-8.33-4.8Z" style="fill: rgb(55, 71, 79); transform-origin: 102.065px 157px;" id="el28d6jgep2hi" class="animable"></path><path d="M121,160.92c12.35-7.13,16.91-17.22,16.91-17.22,0-7.12.78-11,3.63-15.2s7.77-3.37,10.43-12.68-3.23-9.16-3.23-14.66S152,91.51,152,75.31s-10.26-27.2-31-15.24-31,34.8-31,51,3.23,16.6,3.23,22.11-5.89,12.15-3.23,18.4,7.58-.31,10.43.64,3.63,3.88,3.63,11C104.1,163.23,108.66,168.06,121,160.92Z" style="fill: rgb(186, 104, 200); transform-origin: 120.985px 109.925px;" id="el8fpmr744pr8" class="animable"></path><path d="M107.84,115a16.61,16.61,0,0,0-9.16,10.26c-1.31,4.51-.92,12.56,3.86,12.93,3.3.26,10.53-5.66,12.79-12.88S114.2,112.44,107.84,115Z" style="fill: rgb(55, 71, 79); transform-origin: 107.032px 126.286px;" id="eleb0do3emj1i" class="animable"></path><path d="M134.2,99.82c4.09-3,7.85-3.32,9.15-.31s.92,11.5-3.85,17.38c-3.31,4.08-10.53,6.5-12.8,1.9S127.83,104.57,134.2,99.82Z" style="fill: rgb(55, 71, 79); transform-origin: 134.994px 109.346px;" id="elhn47lgfcfu" class="animable"></path><path d="M121,139.67c1,3.69,3.66,3.42,5,1.52s1.06-3.92-.15-6.73-4.87-6.91-4.87-6.91-3.67,8.32-4.88,12.54-1.51,6.58-.15,6.9S120,144.5,121,139.67Z" style="fill: rgb(55, 71, 79); transform-origin: 120.971px 137.282px;" id="elk46a9jlp56" class="animable"></path><path d="M162.87,162.14a5.8,5.8,0,0,0-3,2.19c-2.75,3.43-5.83,5.55-8.7,5.85l-57.25,6c-2,.21-3.47-1.62-3.92-4.56v-.05c-.61-3.8-3.31-4.79-6-2.21a12.32,12.32,0,0,0-3,7.13,9.75,9.75,0,0,1-2.44,5.64,11.28,11.28,0,0,0-3,6c-.72,4.5.87,7.79,3.55,7.27a5.25,5.25,0,0,0,2.73-1.77c3.6-4,7.46-6.64,11.09-7l54.69-5.73c2.34-.24,4,1.83,4.56,5.19v0c.65,3.76,3.38,4.67,6,2a12.38,12.38,0,0,0,3-7.17,9.89,9.89,0,0,1,2.41-5.68,11.32,11.32,0,0,0,2.91-6.08C167.2,164.78,165.56,161.55,162.87,162.14Z" style="fill: rgb(186, 104, 200); transform-origin: 121.024px 178.762px;" id="ellcok30to3u8" class="animable"></path></g></g><defs>     <filter id="active" height="200%">         <feMorphology in="SourceAlpha" result="DILATED" operator="dilate" radius="2"></feMorphology>                <feFlood flood-color="#32DFEC" flood-opacity="1" result="PINK"></feFlood>        <feComposite in="PINK" in2="DILATED" operator="in" result="OUTLINE"></feComposite>        <feMerge>            <feMergeNode in="OUTLINE"></feMergeNode>            <feMergeNode in="SourceGraphic"></feMergeNode>        </feMerge>    </filter>    <filter id="hover" height="200%">        <feMorphology in="SourceAlpha" result="DILATED" operator="dilate" radius="2"></feMorphology>                <feFlood flood-color="#ff0000" flood-opacity="0.5" result="PINK"></feFlood>        <feComposite in="PINK" in2="DILATED" operator="in" result="OUTLINE"></feComposite>        <feMerge>            <feMergeNode in="OUTLINE"></feMergeNode>            <feMergeNode in="SourceGraphic"></feMergeNode>        </feMerge>            <feColorMatrix type="matrix" values="0   0   0   0   0                0   1   0   0   0                0   0   0   0   0                0   0   0   1   0 "></feColorMatrix>    </filter></defs></svg>